<svg width="40" height="40" viewBox="0 0 40 40" fill="none" xmlns="http://www.w3.org/2000/svg">
<path d="M0.214844 39.7943L3.00621 29.6096C1.28989 26.6296 0.375158 23.2441 0.384589 19.7832C0.384589 8.9384 9.21133 0.121094 20.0561 0.121094C25.3182 0.121094 30.2597 2.16746 33.9658 5.88299C37.6813 9.59852 39.7277 14.54 39.7183 19.7927C39.7183 30.6375 30.8915 39.4548 20.0467 39.4548H20.0373C16.7461 39.4548 13.5115 38.6249 10.6353 37.0595L0.214844 39.7943ZM11.1257 33.4948L11.7198 33.8532C14.2282 35.3432 17.1045 36.1259 20.0373 36.1353H20.0467C29.0526 36.1353 36.3894 28.808 36.3894 19.7927C36.3894 15.4264 34.6919 11.3243 31.6082 8.23113C28.5245 5.138 24.4129 3.44055 20.0467 3.44055C11.0314 3.44055 3.69462 10.7679 3.69462 19.7832C3.69462 22.8669 4.55277 25.8752 6.19364 28.4779L6.58028 29.1003L4.92998 35.1263L11.1257 33.4948Z" fill="white"/>
</svg>
