<svg width="76" height="68" viewBox="0 0 76 68" fill="none" xmlns="http://www.w3.org/2000/svg">
<g clip-path="url(#clip0_10406_1066)">
<path d="M72.0904 8.65492C69.998 7.83376 67.009 8.37803 65.8303 10.6912C65.0672 12.1889 65.5425 13.6114 65.7716 14.2946L65.8057 14.3964C65.9647 14.8798 66.0291 15.3917 66.0263 15.9426C65.8975 15.7561 65.7688 15.5658 65.6324 15.3641C65.2253 14.7599 64.804 14.1357 64.3012 13.5143C62.1151 10.813 59.6668 8.51505 57.0233 6.68432C52.7704 3.73842 47.7922 1.83158 42.6275 1.17122C39.7673 0.805838 36.8474 0.818208 33.9493 1.21023C33.866 1.22165 33.7827 1.23307 33.6994 1.24544C28.4959 1.98858 23.5158 3.96774 19.2989 6.96883C18.6191 7.4522 17.9932 7.95936 17.3873 8.44939L17.1364 8.65207C16.04 9.53698 14.9446 10.5894 13.7848 11.872C13.6532 12.0176 13.532 12.1698 13.4212 12.3259C11.7956 12.3088 10.2277 12.7445 8.74887 13.6285C7.28799 14.503 5.97196 15.6686 4.83961 17.0939C4.73357 17.2281 4.62848 17.3632 4.52907 17.4955C2.19904 20.5822 0.796857 24.276 0.24015 28.7891C-0.244602 32.7188 0.00534818 36.6477 0.982426 40.4671C2.10152 44.8412 3.74419 48.2001 6.00321 50.7359C6.71897 51.5389 7.5048 52.2602 8.34081 52.8796C9.75056 53.9244 11.0249 54.6656 12.7055 55.1538L12.9289 55.4088C12.9289 55.4088 14.5062 57.4736 16.841 59.5317C16.841 59.5317 16.842 59.5317 16.8429 59.5327C17.2131 59.8476 17.5738 60.1378 17.908 60.4033C20.9605 62.8306 24.3935 64.6813 28.1115 65.9031C29.7523 66.4426 31.3144 66.8318 32.8852 67.0925C34.6528 67.3865 36.463 67.5359 38.2695 67.5359C38.3055 67.5359 38.3405 67.5359 38.3765 67.5359C45.2681 67.513 52.119 65.2931 57.6662 61.2844C63.2399 57.2576 67.4843 51.4809 69.7263 44.9116L71.3481 40.3805C71.4002 40.3377 71.4513 40.2939 71.5025 40.2492C73.1773 38.7657 73.752 36.2176 72.8687 34.1908C72.8639 34.1785 72.8573 34.168 72.8526 34.1556C73.2777 33.6361 73.556 33.0138 73.6431 32.3506C73.8192 31.008 73.183 30.0156 72.9113 29.5922C72.899 29.5731 72.8867 29.555 72.8753 29.536C72.8071 29.2382 72.9065 28.437 72.9406 28.1668C73.0467 27.3142 73.2767 26.3779 73.5002 25.4721L73.5134 25.4188C73.753 24.4463 74.0559 23.4805 74.3769 22.4586C74.5587 21.8782 74.7471 21.2787 74.9251 20.6698L74.9753 20.4975C75.3748 19.1359 75.9788 17.0778 76.0016 15.0653C76.0489 10.8406 73.5731 9.2344 72.0923 8.65302L72.0904 8.65492Z" fill="white"/>
<path d="M26.9472 31.3827C26.9406 30.5225 26.9349 29.6623 26.8326 28.805C26.7881 28.4291 26.453 27.5633 25.9086 27.8849C25.8016 27.9477 25.724 28.0514 25.6586 28.158C25.0603 29.1352 25.0451 30.5396 24.977 31.6538C24.8198 34.1963 25.6425 37.0623 27.4026 38.9349C27.7245 39.2774 28.108 39.659 28.0663 40.1281C28.0161 40.6961 27.3685 41.0758 26.8913 41.2718C25.67 41.7751 24.2725 41.3222 23.4261 40.3412C22.9243 39.7598 22.592 39.0957 22.3298 38.382C22.0438 37.6018 21.8961 36.793 21.7494 35.9785C21.6367 35.3524 21.5714 34.7244 21.5335 34.0916C21.4814 33.2181 21.4227 32.3456 21.382 31.4721C21.3678 31.1771 21.3924 30.8783 21.4123 30.5824C21.4919 29.4111 21.471 28.2398 21.4294 27.0675C21.401 26.2578 21.364 25.448 21.3148 24.6383C21.2476 23.5383 21.081 22.4517 20.7808 21.3917C20.6748 21.0168 20.4854 20.6657 20.333 20.3041C20.2582 20.1271 20.1701 19.9549 20.1048 19.7751C19.9723 19.4068 20.0385 19.0614 20.2667 18.7503C20.7145 18.1375 21.3281 17.9034 22.0684 17.9767C22.6015 18.029 23.0379 18.2821 23.4176 18.6456C24.0065 19.2108 24.3568 19.914 24.5755 20.6923C24.7109 21.1738 24.78 21.6667 24.8103 22.1624C24.8529 22.8513 24.8842 23.5412 24.8236 24.232C24.8075 24.4156 24.8084 24.6021 24.8226 24.7848C24.8274 24.8524 24.8804 24.9371 24.9362 24.9713C24.9656 24.9894 25.0697 24.9266 25.1067 24.8762C25.1966 24.7544 25.2752 24.6231 25.3443 24.4879C25.5886 24.0065 25.9351 23.6135 26.3564 23.2833C27.3117 22.5335 28.9923 22.7619 29.6664 23.7781C30.4351 24.9371 30.3462 26.5166 30.1956 27.8335C30.0621 28.9943 29.9144 30.2028 30.2723 31.3398C30.4333 31.8518 30.846 32.4341 31.3497 31.9003C31.5296 31.71 31.6385 31.4778 31.7161 31.2304C31.9206 30.5767 32.0551 29.9154 32.0257 29.2198C31.9841 28.2503 31.9765 27.2788 31.9528 26.3092C31.9367 25.6393 32.0068 24.9732 32.163 24.3271C32.5058 22.9065 33.1202 21.6239 34.1967 20.6029C35.2135 19.6381 37.02 19.3183 37.945 20.581C38.5898 21.4612 38.6333 22.7438 38.4269 23.7772C38.2205 24.8105 37.7254 25.8486 36.9944 26.6355C36.7303 26.92 36.4141 27.1351 36.0657 27.3063C35.2098 27.7288 35.7182 28.7327 36.2399 29.2189C36.4055 29.373 36.6025 29.5034 36.825 29.5405C37.6184 29.6728 38.2669 28.7926 38.6239 28.2065C39.0168 27.5614 39.3235 26.8734 39.6483 26.1931C40.026 25.3995 40.2002 24.5603 40.3167 23.6963C40.4975 22.3546 40.8526 20.9883 41.5863 19.8369C42.2746 18.7569 43.5556 17.579 44.9323 17.7655C45.363 17.8235 45.7588 18.0233 46.0873 18.3059C47.7593 19.7465 47.1913 22.4936 46.1669 24.1292C46.0277 24.3519 45.8639 24.5631 45.6878 24.7572C45.3659 25.1112 44.9588 25.3234 44.4911 25.4214C44.3348 25.4547 44.1777 25.488 44.029 25.5432C43.7753 25.6374 43.6522 25.821 43.6986 26.0874C43.7857 26.5899 43.9448 27.0713 44.2809 27.4662C44.7296 27.9933 45.4075 28.1618 46.0637 27.9372C46.6791 27.726 47.1553 27.3159 47.605 26.8639C48.5509 25.9133 49.153 24.7106 49.7987 23.5497C49.8849 23.3946 49.9739 23.23 49.9767 23.0521C49.9814 22.7514 49.7476 22.5097 49.5525 22.2814C48.6711 21.2461 48.3605 19.7494 48.7573 18.4467C49.0896 17.3544 50.0818 16.3467 51.2104 16.4762C51.8731 16.5523 52.4582 17.0195 52.7602 17.618C53.0623 18.2165 53.0992 18.9273 52.9496 19.581C52.8767 19.9007 52.8028 20.325 53.0916 20.4792C53.2128 20.5439 53.3605 20.5287 53.4949 20.5011C54.0166 20.3926 54.5004 20.1129 55.0316 20.0786C55.9007 20.0225 56.7471 20.7428 56.8371 21.6134C56.9412 22.6277 56.1696 23.485 55.6309 24.349C55.0363 25.3015 54.6879 26.4072 54.6273 27.53C54.58 28.3987 54.7987 29.4159 55.5769 29.7965C56.3012 30.1504 57.1656 29.787 57.8331 29.335C58.3472 28.9867 58.8234 28.5833 59.2523 28.1332C59.3763 28.0038 59.5004 27.8601 59.5335 27.6831C59.5827 27.4177 59.4142 27.1655 59.2627 26.9419C58.617 25.9847 58.1484 24.8885 58.0367 23.7381C57.9249 22.5878 58.19 21.3803 58.8821 20.4573C59.3394 19.8464 59.9757 19.3707 60.6895 19.1062C61.6287 18.7579 62.7469 18.7988 63.5611 19.384C64.4445 20.0187 64.8308 21.1909 64.7465 22.2785C64.6622 23.3661 64.1718 24.3823 63.5886 25.3024C63.4267 25.5575 63.2496 25.8401 63.2951 26.1398C63.3263 26.3444 63.4579 26.5175 63.5829 26.6821C64.8696 28.3835 65.9101 30.3322 66.2178 32.4465C66.5255 34.5607 66.0237 36.8596 64.5694 38.4191C63.1152 39.9787 60.6422 40.6143 58.7496 39.639C57.4212 38.9539 56.5057 37.5371 56.394 36.0413C56.3163 35.0117 56.6127 33.9441 57.2688 33.1496C57.9249 32.3551 58.9503 31.8603 59.9766 31.9165C60.29 31.9336 60.6337 32.0211 60.8069 32.2837C60.9262 32.4655 60.9404 32.6938 60.9717 32.9089C61.0455 33.4199 61.3182 33.9879 61.8247 34.0745C62.2707 34.1506 62.7033 33.7862 62.8425 33.3532C62.9826 32.9203 62.8946 32.4474 62.7573 32.0135C62.4477 31.0315 61.8929 30.1285 61.1563 29.4121C61.0361 29.295 60.8959 29.1761 60.7284 29.1723C60.5286 29.1666 60.3657 29.3245 60.2284 29.4711C59.115 30.6662 58.0064 31.9203 56.5682 32.6872C55.2048 33.4141 53.4627 33.6225 52.0984 32.7909C50.9045 32.063 50.328 30.5177 50.3658 29.1628C50.4141 27.4053 51.1962 25.8286 51.9574 24.2843L51.9612 24.2758C52.0681 24.0598 52.1638 23.7695 51.9905 23.6021C51.8636 23.4784 51.6459 23.5012 51.502 23.604C51.3581 23.7067 51.27 23.8695 51.1867 24.0255C50.5154 25.2882 49.7873 26.4937 49.0006 27.6879C48.4353 28.5462 47.748 29.3864 46.9962 30.0857C45.6745 31.3151 43.7961 32.0601 42.1411 31.002C41.5229 30.6072 41.1073 30.0315 40.8336 29.3521C40.7768 29.2113 40.7361 29.0609 40.6642 28.9287C40.5354 28.6908 40.329 28.6889 40.2182 28.9353C40.08 29.2417 39.9692 29.5605 39.8547 29.8773C39.6113 30.5501 39.3188 31.199 38.9448 31.8108C38.5898 32.3922 38.1609 32.9079 37.6023 33.299C37.3684 33.4627 37.1156 33.6121 36.8524 33.7205C35.7428 34.1763 34.6407 33.9375 33.7981 33.0754C33.6533 32.927 33.5264 32.7595 33.3863 32.6063C33.2906 32.5016 33.1997 32.3589 33.0303 32.4189C32.8769 32.4731 32.8788 32.6291 32.8665 32.7652C32.7548 33.9755 32.573 35.2791 31.9273 36.3334C31.2816 37.3877 30.1189 37.9358 28.9705 37.2697C28.4715 36.9804 28.0644 36.5884 27.7766 36.0784C27.3979 35.4076 27.1602 34.6949 27.0646 33.9251C26.9595 33.0783 26.951 32.2286 26.9444 31.3779L26.9472 31.3827ZM45.4615 20.7951C45.4388 20.6809 45.4265 20.5011 45.3649 20.3403C45.2504 20.0415 44.973 19.9825 44.7278 20.1909C44.6558 20.2527 44.5876 20.325 44.5384 20.4059C44.4466 20.5563 44.3632 20.7114 44.2894 20.8712C44.0044 21.4859 43.8529 22.1434 43.71 22.8019C43.6778 22.9493 43.6598 23.1044 43.6626 23.2548C43.6693 23.6468 43.9533 23.8209 44.3008 23.6439C44.4257 23.5802 44.5431 23.486 44.6388 23.3813C44.7448 23.2643 44.8357 23.1273 44.9095 22.9864C45.257 22.3204 45.3848 21.5963 45.4625 20.7941L45.4615 20.7951ZM35.2732 24.6649C35.2732 24.7848 35.2656 24.9057 35.2751 25.0256C35.2874 25.1826 35.3328 25.3291 35.4938 25.3966C35.6576 25.4652 35.7968 25.3909 35.9075 25.2844C36.0278 25.1692 36.1404 25.0408 36.2285 24.9C36.5561 24.3785 36.6943 23.7962 36.7151 23.1882C36.7237 22.9265 36.6972 22.6601 36.6546 22.4013C36.6186 22.1834 36.5248 21.9655 36.2749 21.9293C36.0136 21.8912 35.8716 22.0835 35.7589 22.2842C35.6964 22.3956 35.6491 22.5154 35.6046 22.6353C35.3594 23.289 35.331 23.9808 35.2732 24.6649ZM62.7923 22.3004C62.7838 22.2357 62.7781 22.1719 62.7658 22.1091C62.7261 21.9084 62.6352 21.7419 62.4184 21.699C62.2195 21.66 62.0775 21.7733 61.9819 21.9284C61.8863 22.0825 61.7954 22.2481 61.7433 22.4203C61.5994 22.8961 61.6089 23.3823 61.6903 23.8685C61.6997 23.9227 61.7177 23.9779 61.7433 24.0265C61.8484 24.2339 62.0254 24.2615 62.1845 24.0969C62.212 24.0683 62.2385 24.0369 62.2583 24.0027C62.5679 23.4765 62.6995 22.8941 62.7933 22.2994L62.7923 22.3004ZM51.2198 19.0643C51.1337 19.0671 51.057 19.1651 51.0608 19.2679C51.0646 19.364 51.1384 19.4506 51.216 19.4477C51.2994 19.4458 51.376 19.344 51.3742 19.2413C51.3723 19.1423 51.3022 19.0614 51.2208 19.0643H51.2198Z" fill="black"/>
<path d="M8.19931 30.2609C8.20688 33.6559 8.91129 37.2089 10.1781 40.3575C11.2404 42.998 12.9531 45.8087 15.6183 47.059C19.0466 48.6671 23.0666 47.8831 25.8748 45.4424C27.4635 44.0608 29.0209 42.643 30.5916 41.2405C32.169 39.8323 33.7397 38.4183 35.3265 37.0215C35.7999 36.6047 36.3073 36.2222 36.8214 35.8559C37.968 35.0375 39.1411 34.2602 40.388 33.5998C41.74 32.8843 43.1573 32.3562 44.6674 32.1088C45.5214 31.9689 46.3849 31.9461 47.2465 32.0469C48.0418 32.1402 48.8238 32.3086 49.5575 32.6388C52.4812 33.9547 55.3736 37.7208 54.0519 41.0407C53.2793 42.9808 51.3413 43.9932 49.4061 44.4129C48.7537 44.5546 48.1004 44.6374 47.4339 44.5975C46.9018 44.5651 46.3896 44.4452 45.9257 44.1731C45.4135 43.8724 45.1673 43.4195 45.2535 42.8219C45.2847 42.605 45.3586 42.3785 45.4712 42.192C45.7193 41.781 46.0052 41.3937 46.2722 40.995C46.4909 40.6696 46.7437 40.3603 46.9132 40.0102C47.3894 39.0301 47.3279 38.0662 46.7039 37.1632C46.4123 36.7408 46.0014 36.4667 45.5063 36.3297C44.8416 36.1451 44.1704 36.0309 43.4735 36.0604C43.02 36.0795 42.5892 36.1898 42.1556 36.2926C41.3329 36.4867 40.5726 36.8454 39.8351 37.2479C38.3316 38.0681 36.9796 39.1005 35.7128 40.2519C34.7101 41.1634 33.7719 42.1378 32.8715 43.1512C32.0146 44.115 31.154 45.0761 30.2707 46.0152C29.3371 47.0077 28.3326 47.9259 27.2978 48.8127C26.4144 49.5691 25.5008 50.2847 24.5076 50.888C23.4605 51.5245 22.3811 52.1059 21.1891 52.4218C20.2783 52.6625 19.3524 52.8329 18.4103 52.9071C17.5223 52.9775 16.637 52.9566 15.7556 52.8462C13.6547 52.5826 11.7327 51.8442 10.0257 50.5787C9.33071 50.0639 8.69732 49.4778 8.11789 48.8279C5.85508 46.2883 4.56746 43.017 3.73145 39.7523C2.8481 36.2983 2.62088 32.6759 3.05734 29.1362C3.50044 25.5414 4.59397 22.1273 6.78955 19.2166C6.87666 19.1006 6.96565 18.9864 7.05655 18.8722C7.94179 17.758 8.97851 16.8093 10.1999 16.0785C11.3956 15.363 12.6918 15.0499 14.0817 15.2222C15.7821 15.4334 17.0621 16.7874 17.7571 18.286C19.2369 21.4774 19.0598 25.392 17.5024 28.5063C17.1473 29.2171 16.7241 29.8927 16.2441 30.5245C15.7802 31.1344 15.1951 31.6853 14.5172 32.0469C13.9804 32.3333 13.364 32.4703 12.7865 32.2268C12.4172 32.0707 12.1029 31.8414 11.8482 31.535C11.0387 30.5587 10.5719 28.551 11.8577 27.748C12.4759 27.3616 13.4123 27.5795 13.7039 26.7688C13.8563 26.3454 13.9832 25.9182 14.0447 25.4691C14.1091 24.9933 14.2313 24.5242 14.289 24.0475C14.4462 22.7401 14.6573 21.1159 14.1565 19.858C13.9946 19.4517 13.684 19.0768 13.2589 18.9407C12.9408 18.8389 12.5886 18.8846 12.2799 19.014C11.4269 19.3746 10.8342 20.2452 10.3779 21.016C9.79085 22.0084 9.40077 23.1083 9.06277 24.2074C8.51553 25.9848 8.24192 27.8431 8.20215 29.7014C8.19836 29.8879 8.19647 30.0754 8.19647 30.2619L8.19931 30.2609Z" fill="black"/>
<path d="M38.4396 58.687C35.4696 58.6556 32.5734 58.1646 29.7378 57.2997C29.3647 57.1865 29.0068 57.02 28.649 56.8611C27.5886 56.391 26.5585 55.861 25.5691 55.253C25.2424 55.0522 24.9262 54.8324 24.6213 54.6003C24.2237 54.2977 24.2351 54.0056 24.6441 53.7182C24.8533 53.5717 25.0739 53.4413 25.2936 53.309C26.228 52.7467 27.083 52.0759 27.9247 51.3832C29.662 49.9549 31.2356 48.3611 32.7248 46.6808C33.8515 45.4095 34.9858 44.1459 36.2099 42.967C37.6008 41.6263 39.1166 40.4588 40.8369 39.5701C41.6842 39.1324 42.5714 38.8298 43.5219 38.7489C44.0114 38.707 44.4971 38.7908 44.9506 38.983C45.3502 39.1523 45.5537 39.5748 45.4439 39.9954C45.388 40.2085 45.2924 40.4188 45.1769 40.6072C45.0264 40.8517 44.8408 41.0754 44.6647 41.3037C44.251 41.8385 43.8751 42.3999 43.6488 43.0402C43.3402 43.9175 43.3771 44.7692 43.9035 45.5722C44.4952 46.4743 45.3435 46.9795 46.3784 47.1489C48.3136 47.4658 50.1608 47.1765 51.9047 46.2545C52.6006 45.8862 53.2331 45.4238 53.8636 44.9585C54.0038 44.8548 54.1287 44.7254 54.2423 44.5922C54.5226 44.2629 54.8019 43.9318 55.0623 43.5864C55.5158 42.9879 55.7543 42.2914 55.9286 41.5682C55.9522 41.4674 55.9797 41.3646 56.028 41.2742C56.1208 41.101 56.2798 41.0449 56.454 41.1334C56.5799 41.1981 56.6954 41.2894 56.8043 41.3817C57.5523 42.0155 58.4082 42.4313 59.3587 42.6406C59.6844 42.712 60.0234 42.7234 60.3557 42.7634C60.4977 42.7805 60.6435 42.7871 60.7818 42.8223C61.0374 42.887 61.1538 43.0593 61.1254 43.3219C61.1141 43.4237 61.0876 43.5284 61.0488 43.6235C60.5839 44.7615 60.0205 45.8472 59.4099 46.9129C58.0162 49.3441 56.1122 51.3194 53.9772 53.0816C51.1719 55.3976 48.0106 57.0257 44.4848 57.922C43.1508 58.2608 41.7969 58.4882 40.4241 58.5805C39.7632 58.6252 39.1005 58.6509 38.4387 58.6842L38.4396 58.687Z" fill="#EE7E56"/>
<path d="M58.0443 19.6101C58.031 19.8423 57.9051 20.0297 57.6939 20.1572C57.4932 20.2781 57.2935 20.2419 57.1079 20.1173C57.0018 20.0459 56.9034 19.9631 56.803 19.8842C56.376 19.5483 55.8951 19.3532 55.3526 19.318C54.7892 19.2818 54.6169 19.1515 54.456 18.5958C54.2467 17.8755 53.8784 17.2561 53.316 16.7632C52.5861 16.1238 51.7557 15.7441 50.7635 15.785C50.044 15.8155 49.4143 16.0971 48.8245 16.4777C48.4108 16.7441 48.0604 17.0838 47.7868 17.4987C47.7518 17.552 47.7149 17.6043 47.6751 17.6557C47.4176 17.9916 47.1837 18.0382 46.8268 17.8213C46.7179 17.7547 46.6147 17.6785 46.5058 17.611C45.8933 17.2313 45.2296 17.0182 44.5072 17.0429C43.9031 17.0629 43.3218 17.2037 42.7793 17.4806C41.646 18.0601 40.7693 18.9174 40.0952 19.9936C40.0014 20.143 39.9124 20.2971 39.7998 20.4313C39.6047 20.6616 39.3775 20.6711 39.1512 20.4731C39.085 20.4151 39.0272 20.3485 38.9685 20.2828C38.2897 19.533 37.4612 19.1001 36.4453 19.004C35.7835 18.9422 35.1776 19.1011 34.5821 19.3437C33.9903 19.5844 33.4781 19.9546 33.018 20.397C32.3316 21.0564 31.7465 21.7939 31.3081 22.6445C31.2352 22.7872 31.1614 22.9309 31.0686 23.0613C30.9029 23.2944 30.6842 23.3363 30.4399 23.1907C30.3443 23.1336 30.2553 23.0641 30.1701 22.9918C29.2943 22.2515 28.2775 22.0355 27.165 22.1707C27.0305 22.1868 26.8942 22.2021 26.7598 22.2002C26.5117 22.1954 26.3347 22.0727 26.2428 21.8405C26.205 21.7444 26.1813 21.6416 26.1576 21.5408C25.9048 20.4589 25.4437 19.4826 24.6977 18.6548C24.211 18.1153 23.606 17.7432 22.9386 17.4749C22.5239 17.3084 22.0855 17.2779 21.6434 17.2856C21.4995 17.2884 21.3546 17.2989 21.2126 17.2856C20.9115 17.2589 20.8055 17.0534 20.9636 16.7984C21.0346 16.6842 21.1255 16.5767 21.2249 16.4863C21.7049 16.0505 22.1868 15.6175 22.6763 15.1922C23.8162 14.2007 25.0717 13.371 26.3754 12.6203C27.5541 11.9418 28.7811 11.3614 30.0688 10.9113C31.345 10.4651 32.6431 10.0997 33.9695 9.84658C34.4704 9.75143 34.9788 9.69149 35.4862 9.63439C36.0893 9.56589 36.6934 9.50404 37.2984 9.46407C38.2158 9.40318 39.1332 9.40032 40.0497 9.50879C40.5013 9.56208 40.9549 9.6087 41.4084 9.64486C42.2794 9.71527 43.1277 9.90463 43.9741 10.1092C45.6708 10.5193 47.3182 11.0655 48.8927 11.8324C50.2769 12.507 51.5882 13.3035 52.8351 14.2026C53.3984 14.6089 53.9286 15.0638 54.4531 15.5214C55.0022 16.0001 55.5561 16.4787 56.0532 17.0096C56.6714 17.6681 57.2366 18.3779 57.8208 19.0697C57.9448 19.2171 58.0424 19.3846 58.0461 19.612L58.0443 19.6101Z" fill="#EE7E56"/>
<path d="M38.369 64.6817C36.6913 64.6874 35.0117 64.5533 33.3511 64.2773C31.8684 64.0309 30.4227 63.6588 28.9959 63.1907C25.5903 62.0717 22.482 60.4008 19.672 58.1657C18.9827 57.6176 18.302 57.0591 17.6762 56.4368C17.5739 56.335 17.4669 56.236 17.3827 56.1199C17.2198 55.8944 17.2407 55.6718 17.5076 55.5367C17.7453 55.4158 18.0369 55.4396 18.2954 55.4091C18.6315 55.3692 18.9647 55.3073 19.2971 55.2398C19.9797 55.1009 20.6595 54.9324 21.3554 54.8687C21.7341 54.8335 22.1402 54.8354 22.5 54.9753C22.8863 55.1246 23.2054 55.4586 23.5424 55.6946C24.1361 56.1104 24.7401 56.5082 25.3659 56.8735C26.5863 57.5872 27.8673 58.1923 29.1871 58.6947C30.3309 59.1305 31.502 59.4683 32.695 59.7405C39.2259 61.2277 46.269 60.0221 51.9686 56.4977C56.6703 53.5898 60.4082 49.1358 62.4674 43.9881C62.6625 43.4999 62.8461 43.0004 63.1444 42.5684C63.4663 42.1012 63.9084 41.732 64.3591 41.3904C64.8334 41.0307 65.3476 40.6844 65.9346 40.5883C66.5216 40.4922 67.1985 40.7139 67.4664 41.2467C67.7031 41.7187 67.5706 42.2848 67.421 42.792C65.5095 49.2481 61.4534 55.0352 56.0085 58.9697C50.8949 62.6645 44.6632 64.6636 38.3681 64.6836L38.369 64.6817Z" fill="black"/>
<path d="M63.4837 18.4078C63.4136 18.3936 63.2868 18.3764 63.1646 18.3412C62.5634 18.1681 61.9651 18.188 61.3695 18.3612C60.9785 18.4745 60.5875 18.5886 60.2003 18.7123C59.6862 18.876 59.3908 18.8084 59.0641 18.3698C56.4586 14.8739 52.8712 12.0736 48.9089 10.3019C45.6141 8.8289 42.0116 8.06103 38.4063 8.05151C34.4658 8.042 30.4988 8.94784 26.9408 10.6939C24.4602 11.9118 22.2419 13.558 20.2243 15.4429C19.9384 15.7103 19.6903 16.0176 19.4224 16.304C19.2917 16.4439 19.1677 16.5952 19.0172 16.7113C18.7739 16.9006 18.5296 16.8864 18.2948 16.6894C18.1916 16.6028 18.0988 16.5001 18.0098 16.3982C17.4881 15.8054 16.8718 15.3459 16.139 15.0471C16.0216 14.9995 15.9051 14.9415 15.8 14.8691C15.5311 14.6836 15.4696 14.4172 15.6324 14.1346C15.7034 14.0109 15.7924 13.8938 15.8881 13.7873C16.8292 12.7454 17.8214 11.7567 18.9149 10.8747C19.5815 10.3371 20.2433 9.79089 20.9401 9.29515C24.8314 6.52623 29.3816 4.74213 34.0994 4.06845C34.1761 4.05703 34.2528 4.04657 34.3295 4.0361C36.9596 3.68023 39.6371 3.66311 42.2701 3.99994C46.9747 4.6013 51.5069 6.32641 55.4133 9.03158C57.9526 10.79 60.1567 12.9128 62.0995 15.3126C62.7026 16.0576 63.2139 16.8788 63.763 17.6676C63.817 17.7456 63.8605 17.835 63.8927 17.9245C63.9987 18.2204 63.8548 18.4174 63.4846 18.4088L63.4837 18.4078Z" fill="black"/>
<path d="M19.6941 32.8919C19.7244 33.7645 19.731 34.7046 19.8001 35.6399C19.8493 36.3098 19.9961 36.9711 20.0785 37.6391C20.1949 38.5877 20.495 39.4812 20.8387 40.3642C21.1796 41.2396 21.6444 42.036 22.3148 42.7049C23.0438 43.4329 23.9082 43.9001 24.9099 44.1151C25.0027 44.1351 25.0992 44.1551 25.1835 44.196C25.3814 44.2911 25.4372 44.4681 25.3255 44.6556C25.2735 44.7431 25.2005 44.824 25.1229 44.8896C24.3494 45.5405 23.5418 46.1409 22.6234 46.5738C21.8272 46.9487 20.9921 47.1771 20.1097 47.2056C19.4792 47.2266 18.8505 47.2142 18.2218 47.1267C17.614 47.042 17.1984 46.728 16.9143 46.1942C16.4513 45.3235 16.0196 44.4367 15.6551 43.5204C15.407 42.8952 15.1647 42.2653 14.9696 41.6221C14.7415 40.8714 14.5758 40.1025 14.3684 39.3451C14.2094 38.7618 14.1658 38.1605 14.0768 37.5667C13.9963 37.0358 13.932 36.502 13.8628 35.9701C13.8496 35.8673 13.8439 35.7627 13.842 35.6589C13.8354 35.3478 13.9765 35.1204 14.2453 34.9738C14.3438 34.9206 14.4442 34.8692 14.5483 34.8302C15.6182 34.4267 16.4674 33.7283 17.1889 32.8548C17.8857 32.0108 18.4708 31.0945 18.9736 30.123C19.0474 29.9812 19.1279 29.8414 19.2178 29.711C19.2775 29.6244 19.3655 29.5568 19.4829 29.5844C19.6003 29.612 19.6477 29.7129 19.6657 29.8166C19.6865 29.9337 19.6922 30.0554 19.6922 30.1753C19.6941 31.0583 19.6931 31.9414 19.6931 32.891L19.6941 32.8919Z" fill="#EE7E56"/>
<path d="M66.5556 27.2785C66.5481 26.3175 66.6872 25.3622 66.9561 24.4972C67.5119 22.7141 68.0771 20.891 68.4691 19.0479C68.861 17.2019 69.1053 15.3312 68.5022 13.4977C68.3394 13.0038 68.1226 12.452 68.3583 11.9886C68.8099 11.1017 70.2538 10.9942 71.0566 11.3101C74.4073 12.6261 72.9275 17.3704 72.1975 19.8624C71.7203 21.4914 71.1589 23.0823 70.7537 24.7313C70.5075 25.7323 70.249 26.7723 70.1203 27.8104C69.9915 28.8485 69.8713 30.0256 70.391 30.9238C70.5851 31.2587 70.8767 31.5889 70.8256 31.9733C70.7963 32.1979 70.6467 32.3939 70.4592 32.5204C70.0796 32.7774 69.5939 32.8145 69.1621 32.6832C68.559 32.4995 68.0676 32.0418 67.7202 31.5137C66.9126 30.2863 66.566 28.7334 66.5547 27.2785H66.5556Z" fill="black"/>
<path d="M14.1354 43.8165C14.1354 43.9802 14.1317 44.0867 14.018 44.141C13.9148 44.1904 13.8296 44.1381 13.7539 44.0782C13.6791 44.0192 13.6062 43.9535 13.5494 43.8774C13.3676 43.6338 13.183 43.3912 13.0192 43.1352C12.4151 42.1941 11.9616 41.176 11.5564 40.1379C11.3358 39.5718 11.1607 38.9866 10.9883 38.4033C10.7848 37.7125 10.585 37.0188 10.4222 36.3176C10.2849 35.7248 10.2025 35.1196 10.0965 34.5201C10.0586 34.307 10.0113 34.0948 9.99044 33.8807C9.97245 33.6952 9.98287 33.4982 10.1864 33.404C10.3777 33.3155 10.5339 33.4202 10.6598 33.5467C11.0575 33.9464 11.5025 34.2823 11.9749 34.5858C12.258 34.7675 12.3744 35.0511 12.4 35.3813C12.4436 35.9484 12.4824 36.5164 12.5458 37.0816C12.6007 37.5669 12.6935 38.0484 12.7579 38.5327C12.9397 39.8877 13.2947 41.2008 13.7132 42.4986C13.8211 42.8345 13.9423 43.1657 14.0521 43.5006C14.0919 43.6214 14.1175 43.747 14.1354 43.8174V43.8165Z" fill="black"/>
<path d="M68.3031 38.5945C67.451 38.6297 66.721 38.0798 66.5979 37.0959C66.472 36.0911 66.7712 35.2233 67.6034 34.5934C68.4839 33.9273 69.7555 34.1643 70.2677 35.3384C70.6672 36.2557 70.3737 37.447 69.6257 38.1102C69.2423 38.4499 68.7973 38.6107 68.3031 38.5945Z" fill="black"/>
<path d="M12.8839 23.0508C12.8082 23.9348 12.8385 24.8302 12.6435 25.7027C12.5895 25.9444 12.5166 26.1832 12.4333 26.4154C12.3178 26.7389 12.0915 26.9673 11.7838 27.1205C11.4269 27.2975 11.0756 27.4849 10.7215 27.6676C10.7007 27.679 10.6789 27.6885 10.6571 27.699C10.5208 27.7618 10.3788 27.7932 10.2491 27.6952C10.1203 27.5972 10.1061 27.4516 10.1317 27.3022C10.2585 26.5439 10.4024 25.7884 10.6543 25.0595C10.9478 24.2107 11.2668 23.3734 11.7279 22.5998C11.8179 22.4495 11.9201 22.3048 12.0299 22.1678C12.0887 22.0946 12.1672 22.0318 12.2487 21.9842C12.4636 21.8595 12.6842 21.9252 12.7864 22.1535C12.8404 22.2744 12.8688 22.4133 12.8811 22.5465C12.8972 22.713 12.8849 22.8824 12.8849 23.0508H12.8839Z" fill="black"/>
<path d="M56.2051 28.4177C56.2477 28.1694 56.2808 27.9315 56.331 27.6974C56.3509 27.6061 56.3944 27.5138 56.4475 27.4367C56.5715 27.2578 56.7741 27.2369 56.9161 27.3996C57.1178 27.6308 57.2645 27.9029 57.3175 28.2065C57.3819 28.5719 56.9937 28.9981 56.6217 29.001C56.4598 29.0019 56.3376 28.9315 56.2827 28.784C56.2392 28.667 56.2287 28.5367 56.2051 28.4177Z" fill="#EE7E56"/>
<path d="M27.7629 18.3318C27.7373 18.3318 27.7127 18.329 27.6871 18.3242C27.583 18.3023 27.4893 18.2357 27.4107 18.1273C26.9288 17.4659 26.4317 16.8008 25.9347 16.15C25.8504 16.0396 25.8173 15.9264 25.8381 15.8132C25.858 15.7009 25.9299 15.6 26.0521 15.5153C26.1496 15.4468 26.248 15.4126 26.3437 15.4126C26.3635 15.4126 26.3834 15.4145 26.4024 15.4173C26.5169 15.4345 26.6163 15.5011 26.6959 15.6124C26.8578 15.8408 27.0187 16.0691 27.1787 16.2975C27.5432 16.0567 27.9191 15.8246 28.2988 15.6067C28.1567 15.3678 28.0138 15.13 27.8699 14.893C27.7979 14.7741 27.7771 14.658 27.8093 14.5486C27.8405 14.4392 27.921 14.3478 28.0488 14.2784C28.1397 14.2289 28.2268 14.2032 28.3101 14.2032C28.3452 14.2032 28.3792 14.2079 28.4114 14.2165C28.5241 14.247 28.615 14.3231 28.6822 14.443C29.0836 15.1595 29.4822 15.8902 29.8666 16.6143C29.9301 16.7333 29.9481 16.8465 29.9225 16.9502C29.896 17.0568 29.8231 17.1424 29.7076 17.2052C29.6356 17.2442 29.5637 17.2642 29.4946 17.2642C29.4557 17.2642 29.4179 17.2576 29.3809 17.2461C29.2796 17.2119 29.1944 17.1367 29.1272 17.0197C28.9804 16.7656 28.8337 16.5116 28.6851 16.2585C28.3215 16.4668 27.9608 16.6895 27.6114 16.9198C27.7771 17.1605 27.9418 17.4022 28.1066 17.6439C28.1814 17.7552 28.2126 17.8646 28.1994 17.9693C28.1852 18.0768 28.1227 18.1701 28.0138 18.2462C27.9305 18.3033 27.8462 18.3328 27.7638 18.3328L27.7629 18.3318Z" fill="white"/>
<path d="M28.3111 14.2988C28.3376 14.2988 28.3631 14.3016 28.3877 14.3083C28.4749 14.3321 28.5459 14.392 28.5998 14.4891C29.0022 15.2084 29.397 15.9316 29.7833 16.6586C29.8354 16.7566 29.8505 16.846 29.8306 16.9259C29.8108 17.0059 29.754 17.0706 29.6621 17.121C29.6034 17.1524 29.5476 17.1686 29.4945 17.1686C29.4661 17.1686 29.4377 17.1638 29.4103 17.1552C29.3317 17.1286 29.2645 17.0677 29.2086 16.9716C29.0467 16.69 28.8839 16.4093 28.7191 16.1295C28.2969 16.3693 27.8831 16.6243 27.4788 16.8945C27.6635 17.1619 27.8462 17.4293 28.028 17.6986C28.0905 17.7909 28.116 17.8775 28.1047 17.9583C28.0942 18.0392 28.046 18.1096 27.9589 18.1696C27.8916 18.2162 27.8263 18.239 27.7629 18.239C27.7439 18.239 27.7259 18.2371 27.707 18.2333C27.6256 18.2162 27.5527 18.1629 27.4864 18.0725C27.0017 17.4074 26.5093 16.748 26.0094 16.0934C25.9422 16.0049 25.9157 15.9173 25.9308 15.8307C25.946 15.7441 26.0047 15.6652 26.106 15.5948C26.1884 15.5377 26.2679 15.5091 26.3436 15.5091C26.3588 15.5091 26.3739 15.5101 26.3881 15.5129C26.4781 15.5262 26.5548 15.5786 26.6192 15.6699C26.799 15.923 26.977 16.1761 27.155 16.4302C27.5707 16.1523 27.9967 15.8897 28.4304 15.6433C28.2722 15.3769 28.1122 15.1104 27.9513 14.845C27.8935 14.7498 27.8765 14.6604 27.9011 14.5757C27.9257 14.4919 27.9901 14.4196 28.0952 14.3625C28.1719 14.3207 28.2448 14.2997 28.3111 14.2997M28.3111 14.1094C28.2126 14.1094 28.1094 14.1389 28.0043 14.196C27.8538 14.2779 27.7581 14.3882 27.7193 14.5233C27.6919 14.6175 27.6824 14.7669 27.7903 14.9449C27.9172 15.1533 28.0441 15.3645 28.169 15.5748C27.8433 15.7641 27.5195 15.9639 27.2043 16.1704C27.0613 15.9658 26.9164 15.7613 26.7735 15.5596C26.6779 15.4254 26.5586 15.3464 26.4175 15.3255C26.3929 15.3217 26.3683 15.3198 26.3446 15.3198C26.2291 15.3198 26.1126 15.3597 25.999 15.4397C25.8551 15.5396 25.7699 15.6604 25.7453 15.7984C25.7282 15.8954 25.7339 16.0458 25.8598 16.2104C26.3569 16.8603 26.853 17.5244 27.3349 18.1857C27.4287 18.3142 27.5404 18.3922 27.6682 18.4198C27.6994 18.4265 27.7307 18.4303 27.7629 18.4303C27.8651 18.4303 27.9674 18.396 28.0658 18.3275C28.1984 18.2362 28.2741 18.1201 28.2921 17.984C28.3092 17.8556 28.2722 17.7233 28.1842 17.5929C28.0384 17.3779 27.8916 17.1619 27.7439 16.9478C28.0403 16.7537 28.3442 16.5672 28.65 16.3893C28.7826 16.6157 28.9151 16.8441 29.0439 17.0687C29.1224 17.2057 29.2256 17.2961 29.3497 17.3379C29.3961 17.3532 29.4444 17.3617 29.4936 17.3617C29.5788 17.3617 29.665 17.3379 29.7521 17.2913C29.8922 17.2152 29.9802 17.1096 30.0143 16.9764C30.0465 16.8489 30.0247 16.7128 29.9509 16.5729C29.5655 15.8469 29.1669 15.1161 28.7655 14.3996C28.685 14.2569 28.5752 14.1656 28.437 14.1285C28.3963 14.118 28.3537 14.1123 28.3111 14.1123V14.1094Z" fill="black"/>
<path d="M30.2302 16.8929C30.2075 16.8929 30.1848 16.891 30.163 16.8863C30.0806 16.8701 30.0106 16.8263 29.9557 16.7569C29.9017 16.6893 29.8724 16.6008 29.8686 16.4942C29.8146 15.6036 29.7985 14.6921 29.8193 13.7891C29.8241 13.6597 29.8544 13.5531 29.9102 13.4694C29.9661 13.3847 30.0475 13.319 30.1507 13.2762C30.2227 13.2458 30.2965 13.2305 30.3685 13.2305C30.3988 13.2305 30.43 13.2334 30.4594 13.2391C30.5607 13.2572 30.6601 13.3095 30.7567 13.3951C31.4554 13.9946 32.1219 14.6378 32.7364 15.3077C32.8083 15.3829 32.8528 15.4647 32.867 15.5494C32.8831 15.6398 32.867 15.7216 32.8197 15.792C32.7742 15.8586 32.7061 15.9081 32.6152 15.9386C32.5584 15.9576 32.5035 15.968 32.4533 15.968C32.4059 15.968 32.3605 15.9595 32.3188 15.9414C32.2412 15.9091 32.1636 15.8482 32.0812 15.7568C31.9931 15.6617 31.9023 15.5675 31.8104 15.4723C31.4118 15.6217 31.0142 15.7873 30.625 15.9633C30.6307 16.0927 30.6364 16.2221 30.644 16.3506C30.6506 16.4752 30.6411 16.5713 30.6156 16.6446C30.5853 16.7283 30.5181 16.7968 30.4168 16.8463C30.3524 16.8777 30.2899 16.8939 30.2293 16.8939L30.2302 16.8929ZM30.5862 14.2667C30.5862 14.5608 30.5919 14.8633 30.6004 15.184C30.8172 15.0888 31.0378 14.9975 31.2594 14.9109C31.0284 14.6816 30.8059 14.4685 30.5862 14.2667Z" fill="white"/>
<path d="M30.3635 13.3241C30.3882 13.3241 30.4137 13.326 30.4383 13.3308C30.5226 13.346 30.6059 13.3907 30.6892 13.465C31.3946 14.0701 32.0526 14.7067 32.6623 15.3708C32.7229 15.4346 32.758 15.4993 32.7693 15.564C32.7807 15.6297 32.7693 15.6868 32.7371 15.7362C32.704 15.7857 32.6519 15.8219 32.5809 15.8466C32.5336 15.8628 32.49 15.8704 32.4493 15.8704C32.4143 15.8704 32.3811 15.8637 32.3508 15.8514C32.2865 15.8247 32.2192 15.7714 32.1473 15.6915C32.0441 15.5802 31.9371 15.4698 31.8311 15.3594C31.3889 15.524 30.9524 15.7048 30.5235 15.9008C30.5302 16.0521 30.5368 16.2034 30.5453 16.3538C30.551 16.4641 30.5434 16.5498 30.5217 16.6097C30.4999 16.6697 30.4497 16.7192 30.3702 16.7582C30.319 16.7829 30.2708 16.7962 30.2244 16.7962C30.2083 16.7962 30.1912 16.7943 30.1761 16.7915C30.1155 16.7791 30.0653 16.7477 30.0236 16.6963C29.9829 16.6449 29.9602 16.5755 29.9574 16.4889C29.9034 15.5964 29.8873 14.6962 29.9081 13.7894C29.9119 13.679 29.9375 13.5887 29.9829 13.5201C30.0284 13.4507 30.0947 13.3983 30.1808 13.3622C30.2414 13.3365 30.302 13.3241 30.3616 13.3241M30.5037 15.3271C30.8066 15.192 31.1134 15.0654 31.423 14.9455C31.1229 14.6439 30.8142 14.348 30.4942 14.0587C30.4914 14.0597 30.4885 14.0616 30.4857 14.0625C30.4838 14.485 30.4914 14.9065 30.5046 15.3261M30.3626 13.1329C30.2783 13.1329 30.1922 13.151 30.1089 13.1852C29.9877 13.2356 29.892 13.3127 29.8258 13.4136C29.7604 13.5125 29.7245 13.6362 29.7197 13.7818C29.6989 14.6905 29.715 15.604 29.769 16.4993C29.7737 16.6221 29.8097 16.7296 29.8759 16.8134C29.9441 16.8999 30.036 16.9561 30.1392 16.977C30.1666 16.9827 30.195 16.9856 30.2244 16.9856C30.2992 16.9856 30.3768 16.9665 30.4535 16.9285C30.5785 16.8676 30.6618 16.782 30.6996 16.6735C30.7299 16.5878 30.7413 16.4803 30.7337 16.3423C30.7271 16.2348 30.7224 16.1273 30.7176 16.0207C31.0661 15.8637 31.423 15.7162 31.7809 15.5811C31.8566 15.6601 31.9343 15.741 32.0081 15.8209C32.098 15.9208 32.187 15.9893 32.2779 16.0274C32.331 16.0493 32.3887 16.0607 32.4484 16.0607C32.508 16.0607 32.5733 16.0493 32.6405 16.0264C32.7513 15.9893 32.8356 15.9275 32.8924 15.8428C32.953 15.7524 32.9748 15.6449 32.9549 15.5307C32.9369 15.427 32.8839 15.329 32.7977 15.2386C32.1823 14.5687 31.5129 13.9226 30.8104 13.3194C30.7034 13.2242 30.5879 13.1643 30.4696 13.1433C30.4336 13.1367 30.3976 13.1338 30.3616 13.1338L30.3626 13.1329ZM30.6864 15.0397C30.6817 14.8485 30.6788 14.6639 30.6769 14.4831C30.8104 14.6087 30.9458 14.7381 31.084 14.8742C30.9505 14.9274 30.818 14.9826 30.6864 15.0397Z" fill="black"/>
<path d="M34.9542 15.14C34.8191 15.1319 34.6896 15.1089 34.5695 15.0712C34.2985 14.9873 34.0646 14.8388 33.8752 14.6283C33.6831 14.4156 33.5407 14.1478 33.4525 13.8317C33.3822 13.5806 33.3585 13.3438 33.3829 13.126C33.4079 12.8997 33.4819 12.6934 33.6027 12.5129C33.7246 12.3305 33.8934 12.1738 34.1039 12.0473C34.3165 11.9199 34.5703 11.8303 34.8598 11.779C35.0381 11.7477 35.2229 11.7359 35.4082 11.7452L35.4318 11.7466C35.6114 11.7573 35.7894 11.7938 35.9622 11.8546C36.055 11.8878 36.124 11.9406 36.1673 12.009C36.2088 12.0753 36.229 12.1499 36.2261 12.2298C36.2233 12.3088 36.2009 12.3808 36.1592 12.4441C36.1154 12.5111 36.0536 12.5598 35.9751 12.5875C35.9305 12.6039 35.8809 12.6095 35.827 12.6063C35.7883 12.6039 35.7479 12.5967 35.705 12.5846C35.6 12.5488 35.494 12.5281 35.3853 12.5216C35.2663 12.5145 35.1443 12.5234 35.0159 12.5462C34.8136 12.5817 34.6512 12.6482 34.5326 12.7441C34.4189 12.8364 34.3496 12.9495 34.3183 13.0915C34.2868 13.2364 34.2953 13.4114 34.344 13.6116C34.4155 13.9057 34.5395 14.1162 34.7115 14.2371C34.8171 14.3111 34.9399 14.3508 35.0864 14.3596C35.1743 14.3649 35.2724 14.3584 35.3768 14.3408C35.4726 14.3246 35.5709 14.2981 35.6698 14.2631C35.7056 14.2509 35.7435 14.236 35.7834 14.2184C35.7608 14.0741 35.7382 13.9297 35.7146 13.7853C35.6141 13.8003 35.5135 13.8162 35.4129 13.833C35.3717 13.8401 35.3337 13.8416 35.2978 13.8395C35.2364 13.8358 35.1804 13.8191 35.1339 13.7886C35.0562 13.7392 35.0067 13.6638 34.9862 13.5624C34.9651 13.4563 34.9828 13.3659 35.0403 13.2931C35.0947 13.2239 35.1799 13.1794 35.293 13.1605C35.5277 13.1221 35.766 13.0859 36.0031 13.0553C36.0375 13.0507 36.0698 13.0498 36.1 13.0516C36.1728 13.0559 36.2369 13.0779 36.2886 13.1182C36.362 13.175 36.4071 13.2606 36.4222 13.3731C36.4684 13.7095 36.5136 14.0468 36.557 14.3839C36.5686 14.4743 36.5608 14.5567 36.5339 14.6266C36.5036 14.7048 36.4449 14.7661 36.3598 14.8087C36.2394 14.8711 36.1032 14.9287 35.9453 14.984C35.7903 15.0376 35.6342 15.0779 35.4799 15.1048C35.293 15.1375 35.1159 15.1488 34.9543 15.1391L34.9542 15.14Z" fill="white"/>
<path d="M35.4251 11.8398C35.5961 11.8501 35.7647 11.885 35.9301 11.9425C36.0025 11.9688 36.0543 12.0072 36.0864 12.0577C36.1184 12.1082 36.1331 12.1644 36.1313 12.2253C36.1286 12.2862 36.112 12.3414 36.0797 12.3909C36.0473 12.4405 36.0025 12.4759 35.9433 12.4972C35.9104 12.5085 35.874 12.514 35.8325 12.5115C35.8013 12.5096 35.7665 12.5037 35.7302 12.4929C35.6214 12.4559 35.508 12.4339 35.3908 12.4268C35.3889 12.4267 35.3861 12.4266 35.3842 12.4264C35.2651 12.4193 35.1365 12.4287 34.9995 12.452C34.779 12.4902 34.6029 12.5636 34.4733 12.6692C34.3437 12.7749 34.2607 12.9091 34.2254 13.0709C34.1901 13.2328 34.1997 13.4202 34.2514 13.6339C34.3297 13.9561 34.4661 14.1816 34.6573 14.315C34.7774 14.3995 34.9179 14.4451 35.0804 14.4548C35.1768 14.4606 35.2806 14.4535 35.3918 14.4344C35.4934 14.4167 35.5956 14.3894 35.7002 14.3528C35.7642 14.33 35.8264 14.3041 35.8879 14.2764C35.8562 14.0771 35.8246 13.877 35.7919 13.6777C35.6599 13.6965 35.5278 13.7171 35.3965 13.7388C35.363 13.7444 35.3316 13.7464 35.3023 13.7446C35.256 13.7418 35.2169 13.73 35.183 13.7089C35.1282 13.6741 35.0926 13.6196 35.0781 13.5443C35.0628 13.4672 35.0743 13.403 35.1133 13.3529C35.1524 13.3029 35.217 13.2696 35.307 13.2549C35.5417 13.2156 35.7771 13.1811 36.0132 13.1505C36.041 13.1464 36.0676 13.1461 36.0921 13.1476C36.146 13.1508 36.1915 13.1669 36.2287 13.1949C36.2822 13.2362 36.3144 13.3001 36.3263 13.3866C36.3725 13.723 36.4177 14.0603 36.4602 14.3965C36.4699 14.4724 36.464 14.5378 36.4427 14.5927C36.4213 14.6487 36.3789 14.6919 36.3154 14.7233C36.1959 14.7857 36.0617 14.8416 35.9116 14.8936C35.7614 14.9456 35.6121 14.9843 35.4616 15.0105C35.2824 15.0417 35.1148 15.0526 34.9569 15.0432C34.8294 15.0355 34.7092 15.014 34.5947 14.9786C34.3396 14.8994 34.123 14.7625 33.9434 14.563C33.7637 14.3635 33.628 14.1113 33.5421 13.804C33.4757 13.5674 33.4521 13.3439 33.4751 13.1346C33.4981 12.9244 33.5655 12.7339 33.6791 12.5644C33.7926 12.3949 33.9494 12.2479 34.1501 12.1275C34.3508 12.007 34.5931 11.9205 34.873 11.8715C35.0456 11.8409 35.2217 11.8305 35.4004 11.8393C35.408 11.8397 35.4155 11.8402 35.4231 11.8406M35.4345 11.6507L35.409 11.6491C35.217 11.6405 35.0247 11.6518 34.8397 11.6846C34.5396 11.7371 34.2741 11.8318 34.0518 11.9643C33.8284 12.0987 33.6496 12.2643 33.5204 12.4586C33.3912 12.652 33.3125 12.8722 33.2857 13.1137C33.2605 13.3438 33.2845 13.5931 33.3579 13.8558C33.45 14.1864 33.5991 14.467 33.801 14.6907C34.002 14.9135 34.2496 15.0713 34.5373 15.16C34.6649 15.1992 34.802 15.2236 34.9447 15.2321C35.1138 15.2423 35.2985 15.2305 35.4922 15.1963C35.6513 15.1687 35.8122 15.1269 35.972 15.0726C36.1347 15.0166 36.2748 14.9573 36.4011 14.8915C36.5311 14.8268 36.5919 14.7304 36.6179 14.6604C36.6506 14.5747 36.6602 14.4781 36.6466 14.3714C36.6033 14.0352 36.5582 13.6951 36.5119 13.3596C36.4927 13.2212 36.4356 13.1148 36.3422 13.0425C36.2751 12.9908 36.1943 12.9621 36.1017 12.9566C36.0658 12.9544 36.0268 12.9559 35.9867 12.9611C35.7486 12.9926 35.5094 13.0278 35.2737 13.0671C35.1367 13.0893 35.0318 13.146 34.962 13.2343C34.9107 13.2998 34.8555 13.4137 34.889 13.5816C34.9138 13.707 34.9799 13.8063 35.0795 13.8695C35.1407 13.9084 35.2106 13.9298 35.2881 13.9344C35.3306 13.937 35.3772 13.934 35.4242 13.9264C35.4931 13.9153 35.5621 13.9041 35.632 13.8931C35.6466 13.9816 35.6603 14.0702 35.6739 14.1587C35.6604 14.1636 35.6468 14.1685 35.6341 14.1735C35.5401 14.2069 35.4466 14.2318 35.3566 14.2474C35.2588 14.2644 35.1683 14.2704 35.088 14.2656C34.9595 14.2579 34.8525 14.2229 34.7614 14.1592C34.6085 14.0528 34.4976 13.8613 34.4314 13.5894C34.3866 13.4037 34.3782 13.2431 34.406 13.1123C34.4321 12.9918 34.491 12.8962 34.5877 12.8181C34.6933 12.7329 34.8411 12.6722 35.028 12.6405C35.1488 12.6192 35.264 12.6118 35.3699 12.6172L35.3756 12.6175C35.4757 12.6235 35.5732 12.6427 35.6662 12.674C35.669 12.6742 35.6718 12.6763 35.6746 12.6764C35.724 12.6909 35.7719 12.6994 35.8172 12.7022C35.8834 12.7061 35.9456 12.6975 36.0027 12.6771C36.1006 12.6419 36.1792 12.5809 36.2337 12.4955C36.2849 12.4166 36.312 12.3286 36.3158 12.2326C36.319 12.1327 36.2942 12.0397 36.2423 11.9565C36.1878 11.8693 36.1025 11.8042 35.9901 11.7641C35.8072 11.6997 35.6197 11.6618 35.4326 11.6506L35.4345 11.6507Z" fill="black"/>
<path d="M37.1415 14.8784C37.0451 14.8726 36.9635 14.8401 36.8997 14.7819C36.8196 14.7095 36.7718 14.6055 36.758 14.4713C36.6703 13.6558 36.5719 12.8301 36.466 12.0173C36.4477 11.8799 36.4764 11.7653 36.5509 11.6773C36.6244 11.5902 36.7365 11.5398 36.8852 11.5277C36.9186 11.5249 36.9509 11.524 36.9821 11.5259C37.0832 11.5319 37.1695 11.5629 37.2392 11.6185C37.3307 11.6917 37.383 11.7987 37.3966 11.9358C37.4757 12.7527 37.5463 13.5834 37.6063 14.403C37.6162 14.537 37.5878 14.6478 37.523 14.7316C37.4562 14.8182 37.3555 14.8674 37.2221 14.8775C37.1945 14.8797 37.1679 14.88 37.1424 14.8785L37.1415 14.8784Z" fill="white"/>
<path d="M36.9776 11.62C37.0598 11.6249 37.1276 11.649 37.1809 11.6922C37.2515 11.7489 37.292 11.8333 37.3034 11.9436C37.3822 12.7652 37.4524 13.5864 37.5131 14.4088C37.5217 14.5199 37.5003 14.6073 37.4499 14.6729C37.3995 14.7375 37.3224 14.7739 37.2167 14.7819C37.1929 14.7833 37.171 14.7839 37.1493 14.7826C37.0746 14.7781 37.0134 14.7544 36.9649 14.7105C36.9028 14.6544 36.8651 14.5711 36.8537 14.4608C36.7653 13.6414 36.6683 12.8225 36.5619 12.004C36.5476 11.8935 36.5681 11.8051 36.6243 11.737C36.6805 11.6698 36.7711 11.6305 36.8941 11.6207C36.9226 11.6186 36.9511 11.6184 36.9766 11.6199M36.988 11.4299C36.953 11.4279 36.916 11.4285 36.8779 11.431C36.7035 11.4453 36.5689 11.5068 36.479 11.6139C36.4157 11.6892 36.3461 11.8223 36.3726 12.0279C36.4785 12.8407 36.5761 13.6653 36.6638 14.4799C36.6809 14.6373 36.7388 14.7627 36.8369 14.8506C36.918 14.9231 37.0189 14.9645 37.137 14.9715C37.1672 14.9734 37.1985 14.9733 37.23 14.9705C37.391 14.9582 37.5152 14.897 37.5985 14.7886C37.6777 14.6856 37.7123 14.5523 37.7009 14.3943C37.64 13.5747 37.5693 12.744 37.4904 11.9253C37.4704 11.721 37.3749 11.6047 37.298 11.5429C37.213 11.4749 37.109 11.4372 36.9871 11.4299L36.988 11.4299Z" fill="black"/>
<path d="M37.9771 14.8299C37.9006 14.8253 37.8336 14.8032 37.7771 14.7645C37.707 14.7155 37.6598 14.6479 37.6375 14.5617C37.6151 14.4774 37.6244 14.3846 37.6636 14.2849C37.9784 13.4478 38.3342 12.6074 38.7218 11.7909C38.779 11.6752 38.8506 11.5889 38.9363 11.5349C39.0231 11.4801 39.1243 11.4537 39.2379 11.4568L39.2625 11.4582C39.3655 11.4644 39.4586 11.4938 39.5388 11.5482C39.6254 11.6058 39.697 11.694 39.7516 11.8117C40.1596 12.6464 40.5206 13.5069 40.8246 14.3687C40.8614 14.4672 40.87 14.5602 40.8489 14.6437C40.8264 14.7339 40.7778 14.8015 40.7049 14.8467C40.6408 14.8867 40.562 14.9039 40.4732 14.8986L40.4562 14.8976C40.3373 14.8866 40.2439 14.8467 40.1787 14.7799C40.1188 14.7181 40.0709 14.6314 40.0315 14.5137C39.9885 14.3929 39.9426 14.272 39.8968 14.1501L39.8935 14.1422C39.4588 14.1162 39.0174 14.1049 38.5819 14.1074C38.5349 14.2276 38.4868 14.3486 38.4407 14.4698C38.3958 14.5862 38.3481 14.6701 38.2944 14.7269C38.2326 14.7919 38.1423 14.8265 38.0283 14.8301C38.0102 14.831 37.9932 14.8309 37.9762 14.8299L37.9771 14.8299ZM39.2395 12.5378C39.1199 12.8071 38.9998 13.0868 38.8765 13.3863C39.1192 13.3885 39.3645 13.3946 39.6076 13.4054C39.4887 13.1113 39.3657 12.8209 39.2395 12.5378Z" fill="white"/>
<path d="M39.255 11.5524C39.341 11.5575 39.4183 11.5822 39.4848 11.6272C39.5568 11.6753 39.6168 11.7504 39.6648 11.8515C40.0754 12.6921 40.4322 13.5428 40.7346 14.3997C40.7657 14.4826 40.7726 14.5564 40.7565 14.6203C40.7403 14.6851 40.7071 14.7327 40.6549 14.7648C40.6066 14.7943 40.548 14.807 40.4781 14.8028C40.4733 14.8025 40.4686 14.8023 40.4629 14.8019C40.3667 14.7933 40.2945 14.7632 40.2454 14.7126C40.1963 14.662 40.1544 14.5851 40.1197 14.483C40.0686 14.3388 40.0137 14.1945 39.9588 14.051C39.9399 14.0499 39.9219 14.0488 39.903 14.0477C39.44 14.0199 38.9768 14.0084 38.5165 14.0132C38.4607 14.1538 38.4048 14.2943 38.3517 14.436C38.3123 14.5395 38.2699 14.6142 38.2254 14.6611C38.1808 14.708 38.113 14.7325 38.0236 14.7357C38.0084 14.7367 37.9942 14.7358 37.981 14.7351C37.9214 14.7315 37.8712 14.7151 37.8293 14.6859C37.7783 14.6505 37.7443 14.6008 37.7273 14.5368C37.7103 14.4729 37.7174 14.4009 37.7498 14.3199C38.0647 13.4818 38.4161 12.6516 38.8058 11.8314C38.8544 11.7323 38.9147 11.6597 38.9847 11.6153C39.0557 11.5709 39.1385 11.5492 39.2333 11.5511C39.2399 11.5515 39.2474 11.5519 39.2541 11.5523M38.7316 13.4799C39.0692 13.4801 39.4082 13.489 39.7468 13.5064C39.5885 13.108 39.4207 12.7119 39.2395 12.3169C39.2367 12.3167 39.2329 12.3165 39.2301 12.3163C39.0561 12.7024 38.8906 13.09 38.7316 13.4799ZM39.2655 11.3623C39.256 11.3618 39.2475 11.3613 39.238 11.3607C39.1055 11.3575 38.9869 11.3885 38.8844 11.4539C38.7838 11.5174 38.7001 11.6163 38.6354 11.7468C38.2456 12.568 37.8878 13.4102 37.5718 14.252C37.5259 14.3675 37.5154 14.4803 37.5433 14.5849C37.571 14.6914 37.633 14.78 37.7204 14.8414C37.7905 14.8904 37.8742 14.9183 37.9687 14.924C37.9886 14.9252 38.0085 14.9254 38.0303 14.9248C38.17 14.9199 38.2818 14.8751 38.3607 14.7931C38.4234 14.7273 38.4784 14.6333 38.5278 14.5048C38.5661 14.4041 38.6054 14.3035 38.6446 14.2029C39.0364 14.2016 39.4332 14.2121 39.8245 14.2346C39.8638 14.338 39.903 14.4442 39.9404 14.5485C39.9829 14.6769 40.0387 14.7755 40.1083 14.8474C40.1896 14.9314 40.3024 14.9801 40.4448 14.9934C40.4514 14.9938 40.459 14.9942 40.4656 14.9946C40.5743 15.0011 40.6714 14.9793 40.7522 14.9289C40.8457 14.8716 40.91 14.7811 40.9386 14.6684C40.9637 14.565 40.9543 14.4529 40.9102 14.335C40.6062 13.4722 40.2426 12.6077 39.8329 11.7691C39.7715 11.6386 39.6894 11.5374 39.5882 11.4694C39.4933 11.4065 39.3845 11.3704 39.2645 11.3632L39.2655 11.3623ZM39.0151 13.2919C39.0894 13.1124 39.1633 12.9395 39.2369 12.7714C39.3137 12.9466 39.3884 13.1237 39.4621 13.3025C39.3135 13.2974 39.1639 13.2932 39.0151 13.291L39.0151 13.2919Z" fill="black"/>
<path d="M43.2964 15.3719C43.2728 15.3705 43.2474 15.367 43.2231 15.3608C43.1268 15.3379 43.0515 15.2971 42.9988 15.2425C42.9524 15.194 42.9081 15.1255 42.8633 15.0352C42.5616 14.4184 42.22 13.805 41.8461 13.2069C41.7882 13.6981 41.7309 14.1637 41.6712 14.6205C41.655 14.7482 41.6065 14.8464 41.5295 14.9113C41.4596 14.9701 41.3689 14.997 41.2602 14.9905C41.246 14.9896 41.2309 14.9887 41.2159 14.9859C41.0907 14.9699 40.9961 14.9184 40.9338 14.8346C40.8733 14.7519 40.8483 14.6455 40.8608 14.5166C40.9425 13.6922 41.0156 12.853 41.0787 12.0227C41.0898 11.8842 41.1388 11.7794 41.2244 11.7112C41.3011 11.6509 41.3966 11.6233 41.5072 11.6299C41.5195 11.6307 41.5327 11.6315 41.5459 11.6332C41.6523 11.6472 41.7357 11.6789 41.7945 11.7272C41.8459 11.7704 41.9018 11.8347 41.9603 11.9202C42.3675 12.5156 42.7458 13.135 43.0865 13.7636C43.1776 13.2886 43.2645 12.8201 43.3447 12.3693C43.3676 12.24 43.4273 12.1454 43.5208 12.0891C43.5868 12.0492 43.6666 12.0311 43.7573 12.0365C43.7923 12.0386 43.8298 12.0447 43.8691 12.0537C44.0066 12.0858 44.1072 12.1481 44.17 12.2395C44.2337 12.332 44.2526 12.4437 44.2261 12.5708C44.0523 13.3964 43.8667 14.2298 43.6744 15.0485C43.6475 15.1651 43.5928 15.2534 43.5126 15.3105C43.4482 15.3562 43.3758 15.3767 43.2955 15.3718L43.2964 15.3719Z" fill="white"/>
<path d="M41.5034 11.726C41.5138 11.7266 41.5251 11.7273 41.5364 11.7289C41.6249 11.7399 41.6917 11.7649 41.7359 11.8019C41.7802 11.8388 41.8308 11.8972 41.8849 11.9757C42.3478 12.6536 42.7635 13.3458 43.1322 14.0456C43.2393 13.4934 43.3426 12.9411 43.4413 12.3874C43.4597 12.2865 43.5029 12.2138 43.5737 12.1714C43.623 12.1409 43.6835 12.1284 43.7553 12.1327C43.7856 12.1345 43.8175 12.1393 43.8512 12.147C43.9653 12.1739 44.0468 12.2236 44.0956 12.2942C44.1445 12.3648 44.1574 12.4513 44.1362 12.5511C43.9614 13.3785 43.7781 14.2045 43.5856 15.027C43.5638 15.121 43.5217 15.19 43.4603 15.233C43.4138 15.2664 43.3617 15.2805 43.304 15.277C43.2851 15.2759 43.2664 15.2728 43.2467 15.2679C43.1682 15.2488 43.1084 15.2186 43.0692 15.1762C43.029 15.1337 42.9891 15.0722 42.9493 14.9917C42.6089 14.2954 42.2196 13.6058 41.784 12.9296C41.7201 13.49 41.6514 14.0493 41.5791 14.6073C41.5652 14.7123 41.5293 14.7883 41.4704 14.8382C41.4195 14.8809 41.3519 14.8997 41.2678 14.8947C41.2555 14.8939 41.2432 14.8932 41.2301 14.8914C41.1312 14.8789 41.0586 14.8411 41.0121 14.7773C40.9656 14.7145 40.947 14.6304 40.9571 14.5252C41.0391 13.6942 41.1118 12.8626 41.175 12.0294C41.1836 11.9184 41.2198 11.8367 41.2845 11.7853C41.3423 11.7392 41.4156 11.7188 41.5025 11.724M41.5139 11.534C41.3816 11.5261 41.2619 11.5609 41.1674 11.6353C41.0598 11.7203 40.9981 11.8482 40.9853 12.0142C40.9224 12.8407 40.8485 13.6789 40.7676 14.5053C40.7528 14.6579 40.7829 14.7874 40.8584 14.8892C40.9365 14.9949 41.0531 15.0581 41.2037 15.0786C41.2206 15.0806 41.2376 15.0825 41.2546 15.0836C41.3888 15.0916 41.5018 15.0574 41.5907 14.9827C41.6866 14.9017 41.745 14.7832 41.7655 14.6309C41.8132 14.262 41.8608 13.8788 41.9081 13.4861C42.2249 14.0074 42.5164 14.5396 42.7784 15.0739C42.8284 15.1741 42.8779 15.2495 42.9305 15.3061C42.9956 15.3748 43.0866 15.4241 43.2015 15.452C43.2324 15.4595 43.2625 15.4642 43.2918 15.466C43.3919 15.472 43.4884 15.4444 43.5687 15.3872C43.6688 15.316 43.7359 15.2095 43.768 15.0694C43.9604 14.2488 44.1461 13.4144 44.3198 12.5898C44.3597 12.3986 44.3042 12.2638 44.2492 12.1852C44.1733 12.0739 44.0526 11.9989 43.8918 11.9607C43.8478 11.9504 43.8046 11.944 43.7639 11.9416C43.6543 11.935 43.5562 11.9577 43.4726 12.008C43.3918 12.0575 43.2872 12.157 43.2517 12.3532C43.1862 12.7191 43.1169 13.0991 43.0423 13.4883C42.7331 12.936 42.3967 12.3925 42.0375 11.8667C41.9729 11.7722 41.9126 11.7028 41.853 11.6535C41.7798 11.5929 41.6825 11.5546 41.5563 11.5385C41.5413 11.5366 41.5262 11.5348 41.5111 11.5339L41.5139 11.534Z" fill="black"/>
<path d="M46.2979 16.2169C46.1562 16.2084 45.9972 16.1855 45.8277 16.1506C45.6571 16.1156 45.493 16.0695 45.3389 16.0126C44.9909 15.885 44.7228 15.7221 44.519 15.5135C44.3117 15.3018 44.172 15.0532 44.1024 14.7745C44.0321 14.492 44.0352 14.1862 44.1123 13.8658C44.173 13.612 44.2697 13.3929 44.4007 13.2158C44.536 13.0323 44.7066 12.891 44.9068 12.7953C45.1089 12.6997 45.3405 12.6497 45.5947 12.6487C45.6355 12.6483 45.6772 12.6499 45.7188 12.6524C45.9399 12.6656 46.1749 12.7169 46.4181 12.8049C46.5973 12.8699 46.7715 12.9547 46.9378 13.0591C47.1051 13.1644 47.2586 13.2928 47.3939 13.442C47.4623 13.5185 47.5001 13.599 47.5056 13.6813C47.5112 13.7626 47.4924 13.8387 47.4504 13.9067C47.4094 13.9729 47.3523 14.0248 47.281 14.0586C47.2244 14.0857 47.1639 14.0974 47.0996 14.0935C47.0817 14.0924 47.0628 14.0904 47.0441 14.0864C46.9616 14.0709 46.88 14.0232 46.8012 13.946C46.7201 13.8582 46.6298 13.7832 46.5302 13.72C46.4279 13.6548 46.3108 13.5982 46.1808 13.5513C46.0453 13.5022 45.918 13.4736 45.8027 13.4667C45.7441 13.4632 45.6871 13.4655 45.6345 13.4728C45.4843 13.4943 45.3629 13.5566 45.2645 13.6641C45.164 13.7734 45.0855 13.9289 45.03 14.1267C44.9499 14.4183 44.9589 14.6639 45.0573 14.8575C45.1549 15.0483 45.3407 15.192 45.6247 15.2967C45.7221 15.333 45.8266 15.3612 45.9363 15.3831C45.9766 15.3912 46.0198 15.3985 46.0669 15.4042C46.1168 15.2671 46.1677 15.13 46.2177 14.9929C46.1148 14.9524 46.0119 14.9129 45.9089 14.8743C45.8004 14.8335 45.7225 14.7735 45.6779 14.6946C45.6316 14.6127 45.623 14.5178 45.6545 14.4206C45.6964 14.2906 45.7784 14.2364 45.8395 14.2134C45.8822 14.1978 45.9281 14.191 45.9782 14.194C46.0283 14.197 46.0779 14.2086 46.1326 14.229C46.3692 14.3176 46.6082 14.412 46.8414 14.5089C46.9534 14.5556 47.03 14.6222 47.0694 14.7084C47.1097 14.7957 47.1085 14.8948 47.067 15.0009C46.9437 15.3176 46.8185 15.6342 46.6914 15.9498C46.6569 16.0354 46.6092 16.1031 46.5476 16.1508C46.4839 16.2004 46.4047 16.2233 46.3102 16.2176L46.2989 16.217L46.2979 16.2169Z" fill="white"/>
<path d="M45.713 12.7464C45.9228 12.7589 46.1485 12.8077 46.3852 12.8934C46.5588 12.9563 46.7265 13.0378 46.8874 13.139C47.0483 13.2392 47.1936 13.3623 47.3227 13.5044C47.3769 13.5649 47.4055 13.6257 47.4103 13.687C47.4143 13.7482 47.4005 13.8036 47.369 13.8551C47.3374 13.9066 47.2933 13.9459 47.2396 13.9723C47.1976 13.9926 47.1525 14.0013 47.1052 13.9985C47.091 13.9977 47.0769 13.9959 47.0619 13.9931C46.9972 13.9806 46.9331 13.9424 46.8678 13.8775C46.7841 13.7867 46.6873 13.7075 46.5804 13.6391C46.4735 13.5717 46.351 13.5119 46.2136 13.4618C46.0678 13.4092 45.933 13.3792 45.8092 13.3717C45.744 13.3678 45.6813 13.3698 45.622 13.3786C45.4498 13.4026 45.3078 13.478 45.1952 13.5999C45.0825 13.7228 44.9975 13.8902 44.9393 14.1022C44.851 14.421 44.8644 14.6877 44.9739 14.9021C45.0843 15.1165 45.2892 15.2746 45.5935 15.3873C45.6956 15.4248 45.8048 15.4552 45.9191 15.4773C45.9895 15.4911 46.06 15.501 46.1306 15.5091C46.1999 15.3197 46.2701 15.1295 46.3384 14.9391C46.2069 14.8864 46.0743 14.8356 45.9426 14.7857C45.8545 14.7528 45.7937 14.7072 45.7602 14.648C45.7268 14.5888 45.7212 14.5237 45.7445 14.4507C45.769 14.375 45.8108 14.326 45.872 14.303C45.9021 14.2914 45.9355 14.2877 45.9723 14.2899C46.0111 14.2923 46.0532 14.3024 46.0996 14.3195C46.3352 14.408 46.5705 14.5003 46.8046 14.5982C46.8944 14.635 46.954 14.6863 46.9824 14.7499C47.0118 14.8136 47.0103 14.886 46.9778 14.9679C46.8545 15.2846 46.7294 15.6003 46.6033 15.9159C46.5753 15.9866 46.537 16.0406 46.4893 16.0768C46.4445 16.1122 46.3857 16.1278 46.3157 16.1236C46.3129 16.1234 46.3091 16.1232 46.3063 16.123C46.1645 16.1145 46.0122 16.092 45.8473 16.0583C45.6824 16.0246 45.5248 15.9799 45.3716 15.924C45.0422 15.8032 44.7821 15.6475 44.5865 15.447C44.3907 15.2475 44.2604 15.0166 44.1947 14.7515C44.129 14.4863 44.1302 14.1985 44.2048 13.8875C44.2618 13.6478 44.3519 13.4426 44.4769 13.2718C44.6029 13.1011 44.7587 12.9703 44.9471 12.8806C45.1356 12.7909 45.3517 12.7447 45.5956 12.7431C45.6345 12.7426 45.6743 12.744 45.714 12.7464M45.7253 12.5565C45.6819 12.5539 45.6374 12.5521 45.5947 12.5524C45.3262 12.5544 45.0802 12.6064 44.8664 12.708C44.6526 12.8096 44.47 12.9607 44.3254 13.1579C44.187 13.3459 44.085 13.5753 44.0207 13.8421C43.9408 14.1776 43.9376 14.4987 44.0108 14.7967C44.0842 15.0918 44.2325 15.3552 44.4514 15.579C44.665 15.7977 44.945 15.968 45.306 16.1012C45.4647 16.1593 45.6344 16.2076 45.8087 16.2428C45.983 16.279 46.1467 16.3012 46.2941 16.311L46.3045 16.3116C46.4226 16.3187 46.5239 16.2895 46.6056 16.2248C46.6792 16.1673 46.7382 16.086 46.7784 15.9845C46.9045 15.6699 47.0308 15.3495 47.1541 15.0347C47.218 14.8699 47.1895 14.7442 47.1543 14.6668C47.1048 14.559 47.0112 14.4752 46.877 14.4195C46.6429 14.3225 46.4029 14.2281 46.1654 14.1385C46.1014 14.1147 46.0405 14.1015 45.9829 14.098C45.9196 14.0942 45.8602 14.1031 45.8049 14.1236C45.7244 14.154 45.6168 14.2248 45.5632 14.3912C45.5235 14.5147 45.5343 14.6354 45.5943 14.742C45.6501 14.8397 45.7442 14.9149 45.8751 14.9628C45.9484 14.9901 46.0216 15.0183 46.0958 15.0466C46.0651 15.1305 46.0346 15.2135 46.0039 15.2975C45.987 15.2946 45.9701 15.2917 45.9532 15.2887C45.8482 15.2681 45.7484 15.2402 45.6556 15.2061C45.3948 15.1104 45.2262 14.9811 45.1395 14.8129C45.0521 14.6418 45.0455 14.4193 45.1194 14.1511C45.1703 13.9673 45.2414 13.8248 45.3317 13.7272C45.4159 13.636 45.5187 13.5831 45.6459 13.565C45.6928 13.5583 45.7432 13.5565 45.7951 13.5596C45.9019 13.566 46.0198 13.5931 46.147 13.6389C46.2705 13.6835 46.381 13.7377 46.4779 13.7988C46.5702 13.8578 46.6542 13.9276 46.7273 14.0063C46.729 14.0084 46.7318 14.0104 46.7335 14.0124C46.8258 14.1028 46.9239 14.1592 47.0242 14.1786C47.0467 14.1828 47.0693 14.1861 47.092 14.1874C47.1723 14.1922 47.2491 14.1778 47.3204 14.143C47.4074 14.1005 47.4784 14.0381 47.5289 13.9553C47.5824 13.8698 47.6062 13.774 47.599 13.6726C47.5919 13.5692 47.5458 13.4692 47.464 13.3776C47.3226 13.2213 47.1627 13.0869 46.9872 12.9772C46.8153 12.8697 46.6347 12.7816 46.45 12.7143C46.1984 12.623 45.9541 12.5702 45.7244 12.5564L45.7253 12.5565Z" fill="black"/>
<path d="M33.149 56.9929C33.0771 56.9929 32.9985 56.9815 32.9161 56.9606C32.7097 56.9063 32.562 56.8026 32.4768 56.6523C32.3916 56.5029 32.3765 56.3221 32.4304 56.1156L33.1708 53.2772L32.2903 53.0451C32.1133 52.9985 31.9864 52.9119 31.9144 52.7872C31.8425 52.6635 31.8283 52.5122 31.8737 52.3381C31.9201 52.1592 32.0063 52.0336 32.1303 51.9622C32.2042 51.9204 32.2884 51.8985 32.3822 51.8985C32.4437 51.8985 32.5109 51.908 32.581 51.9261L35.6646 52.7387C35.8417 52.7853 35.9676 52.871 36.0405 52.9918C36.1134 53.1145 36.1276 53.2668 36.0812 53.4447C36.0358 53.6188 35.9506 53.7435 35.8265 53.8168C35.7517 53.8605 35.6646 53.8834 35.569 53.8834C35.5075 53.8834 35.4421 53.8739 35.373 53.8558L34.4925 53.6236L33.7521 56.462C33.6982 56.6685 33.5988 56.8179 33.4567 56.9073C33.3678 56.9634 33.2646 56.991 33.1481 56.991L33.149 56.9929Z" fill="white"/>
<path d="M32.3836 51.9941C32.4376 51.9941 32.4963 52.0027 32.5588 52.0188L35.6425 52.8305C35.7949 52.8704 35.9019 52.9409 35.9615 53.0408C36.0212 53.1407 36.0316 53.2672 35.9918 53.4214C35.953 53.5708 35.8829 53.6754 35.7807 53.7354C35.7201 53.7706 35.65 53.7887 35.5715 53.7887C35.5184 53.7887 35.4607 53.7811 35.3991 53.7649L34.4268 53.5089L33.6627 56.4396C33.6154 56.6223 33.5302 56.7517 33.409 56.8278C33.3352 56.8744 33.249 56.8973 33.1505 56.8973C33.0862 56.8973 33.017 56.8878 32.9422 56.8678C32.7605 56.8202 32.6336 56.7327 32.5607 56.6042C32.4878 56.4767 32.4755 56.3216 32.5228 56.1389L33.2869 53.2082L32.3145 52.9523C32.1621 52.9123 32.0561 52.841 31.9964 52.7391C31.9368 52.6373 31.9273 52.5117 31.9661 52.3623C32.0059 52.2091 32.0769 52.1035 32.1782 52.0455C32.2378 52.0112 32.306 51.9951 32.3836 51.9951M32.3836 51.8047C32.2738 51.8047 32.1725 51.8304 32.0845 51.8799C31.9377 51.9637 31.8364 52.1092 31.7834 52.3138C31.7313 52.5127 31.7484 52.6887 31.8336 52.8352C31.9188 52.9818 32.0655 53.0836 32.2672 53.1369L33.0559 53.3443L32.3401 56.0913C32.2795 56.3226 32.2984 56.5271 32.3959 56.6994C32.4944 56.8725 32.662 56.9915 32.894 57.0524C32.9839 57.0762 33.0701 57.0885 33.1505 57.0885C33.285 57.0885 33.4052 57.0552 33.5094 56.9896C33.6722 56.8868 33.7858 56.7184 33.8455 56.4881L34.5612 53.7411L35.3499 53.9485C35.4266 53.9685 35.5004 53.979 35.5696 53.979C35.6822 53.979 35.7845 53.9523 35.8744 53.9C36.0212 53.8134 36.1215 53.6697 36.1727 53.4699C36.2257 53.2653 36.2086 53.0883 36.1215 52.9437C36.0354 52.8 35.8896 52.7001 35.6889 52.6478L32.6052 51.8361C32.5266 51.8152 32.4518 51.8047 32.3817 51.8047H32.3836Z" fill="black"/>
<path d="M37.8448 57.6718C37.8098 57.6718 37.7747 57.6718 37.7388 57.6699C37.2682 57.6546 36.8516 57.5376 36.4994 57.3245C36.1463 57.1094 35.8736 56.8116 35.688 56.4396C35.5034 56.0694 35.4182 55.6374 35.4334 55.156C35.4447 54.7944 35.5129 54.4623 35.635 54.1702C35.7581 53.8752 35.9304 53.6212 36.1482 53.4137C36.3659 53.2063 36.6272 53.0483 36.9236 52.9446C37.1887 52.8514 37.4812 52.8047 37.7918 52.8047C37.8268 52.8047 37.8618 52.8048 37.8978 52.8067C38.3684 52.8219 38.784 52.937 39.1334 53.1492C39.4846 53.3623 39.7573 53.6573 39.9448 54.0275C40.1322 54.3966 40.2184 54.8296 40.2032 55.3149C40.1919 55.6764 40.1237 56.0085 40.0016 56.3006C39.8785 56.5956 39.7062 56.8506 39.4884 57.0599C39.2707 57.2693 39.0093 57.4282 38.713 57.5328C38.4479 57.6261 38.1554 57.6727 37.8448 57.6727V57.6718ZM37.8164 53.9856C37.6327 53.9856 37.4699 54.0275 37.3335 54.1112C37.1868 54.2006 37.0703 54.3367 36.987 54.5146C36.9009 54.6983 36.8535 54.9295 36.8441 55.2026C36.8308 55.6032 36.9084 55.92 37.0751 56.1455C37.2379 56.3672 37.468 56.4795 37.7776 56.49C37.7918 56.49 37.806 56.49 37.8202 56.49C38.0077 56.49 38.1705 56.4472 38.3049 56.3625C38.4498 56.2711 38.5653 56.1332 38.6496 55.9524C38.7357 55.7659 38.784 55.5356 38.7925 55.2673C38.8058 54.8667 38.7282 54.5508 38.5625 54.3281C38.3987 54.1083 38.1696 53.997 37.86 53.9865C37.8458 53.9865 37.8316 53.9865 37.8173 53.9865L37.8164 53.9856Z" fill="white"/>
<path d="M37.7919 52.9013C37.826 52.9013 37.8601 52.9013 37.8942 52.9032C38.3505 52.9184 38.7472 53.0279 39.0843 53.2324C39.4213 53.437 39.6798 53.7168 39.8606 54.0717C40.0415 54.4275 40.1238 54.8405 40.1087 55.3125C40.0973 55.6636 40.0329 55.9814 39.9146 56.2649C39.7962 56.5485 39.6324 56.7911 39.4232 56.9919C39.214 57.1936 38.9669 57.3439 38.6819 57.4439C38.4253 57.5333 38.1469 57.579 37.8449 57.579C37.8108 57.579 37.7768 57.579 37.7427 57.5771C37.2863 57.5618 36.8887 57.4515 36.5497 57.245C36.2108 57.0385 35.9523 56.7569 35.7734 56.3991C35.5954 56.0413 35.5139 55.6293 35.5291 55.1621C35.5405 54.811 35.6058 54.4932 35.7232 54.2096C35.8415 53.9261 36.0053 53.6844 36.2146 53.4855C36.4238 53.2867 36.6709 53.1373 36.9559 53.0364C37.2125 52.947 37.4908 52.9013 37.7929 52.9013M37.8203 56.5875C38.0267 56.5875 38.2056 56.5399 38.3562 56.4448C38.5171 56.3429 38.644 56.1926 38.7358 55.9937C38.8277 55.7949 38.8788 55.5541 38.8873 55.2715C38.9015 54.8472 38.8182 54.5141 38.6383 54.2724C38.4584 54.0308 38.2 53.9042 37.8629 53.8928C37.8478 53.8928 37.8326 53.8928 37.8175 53.8928C37.6149 53.8928 37.4369 53.9394 37.2854 54.0327C37.1216 54.1326 36.9947 54.2801 36.9029 54.477C36.811 54.674 36.7609 54.9157 36.7514 55.2021C36.7372 55.6265 36.8205 55.9604 37.0004 56.205C37.1803 56.4486 37.4388 56.577 37.7758 56.5875C37.791 56.5875 37.8061 56.5875 37.8213 56.5875M37.7938 52.711C37.4728 52.711 37.1699 52.7595 36.8944 52.8566C36.5848 52.9651 36.313 53.1306 36.0849 53.3466C35.8576 53.5626 35.6777 53.8281 35.549 54.1354C35.4221 54.439 35.352 54.7825 35.3397 55.1555C35.3236 55.6521 35.4126 56.0994 35.6039 56.4847C35.797 56.8729 36.082 57.1841 36.4513 57.4086C36.8167 57.6313 37.2494 57.7522 37.736 57.7683C37.773 57.7693 37.8089 57.7702 37.8449 57.7702C38.1668 57.7702 38.4689 57.7217 38.7444 57.6246C39.054 57.5162 39.3266 57.3497 39.5548 57.1308C39.782 56.9129 39.9619 56.6465 40.0897 56.3391C40.2166 56.0356 40.2867 55.6931 40.299 55.3191C40.3151 54.8177 40.2251 54.3685 40.031 53.986C39.8351 53.5997 39.5501 53.2924 39.1837 53.0697C38.8201 52.8499 38.3893 52.73 37.9017 52.7139C37.8648 52.7129 37.8288 52.712 37.7929 52.712L37.7938 52.711ZM37.8213 56.3972C37.808 56.3972 37.7957 56.3972 37.7824 56.3972C37.5041 56.3877 37.2977 56.2878 37.1528 56.0917C36.9994 55.8843 36.9284 55.5874 36.9407 55.2087C36.9493 54.949 36.9947 54.7301 37.0742 54.5579C37.15 54.3952 37.2513 54.2763 37.3838 54.1954C37.5069 54.1202 37.6489 54.084 37.8184 54.084C37.8317 54.084 37.844 54.084 37.8572 54.084C38.1356 54.0936 38.342 54.1925 38.4868 54.3876C38.6393 54.5931 38.7103 54.8881 38.698 55.2668C38.6895 55.5227 38.645 55.7406 38.5635 55.9148C38.4868 56.0813 38.3855 56.2021 38.2549 56.2849C38.1337 56.361 37.9917 56.3981 37.8203 56.3981L37.8213 56.3972Z" fill="black"/>
<path d="M42.6025 57.2046C42.5409 57.2046 42.4794 57.2018 42.4207 57.197C42.1433 57.1742 41.8924 57.0981 41.6737 56.9705C41.454 56.8421 41.2665 56.6585 41.1151 56.4234C40.9655 56.1922 40.85 55.9077 40.7695 55.5785L40.2828 53.5727C40.2308 53.3557 40.2488 53.173 40.3387 53.0284C40.4277 52.8847 40.5773 52.7867 40.7837 52.7363C40.8613 52.7173 40.9361 52.7077 41.0052 52.7077C41.1226 52.7077 41.2268 52.7353 41.3167 52.7905C41.4597 52.8781 41.5591 53.0322 41.6112 53.2482L42.1007 55.2673C42.1726 55.5632 42.29 55.7716 42.451 55.8858C42.5542 55.9591 42.6725 55.9952 42.8117 55.9952C42.8855 55.9952 42.9651 55.9848 43.0493 55.9638C43.2889 55.9048 43.4489 55.7926 43.5379 55.6194C43.6278 55.4443 43.6373 55.2055 43.5653 54.9086L43.0758 52.8904C43.0238 52.6744 43.0408 52.4917 43.1279 52.3481C43.215 52.2044 43.3637 52.1064 43.571 52.055C43.6458 52.0369 43.7187 52.0274 43.785 52.0274C43.9014 52.0274 44.0065 52.056 44.0955 52.1111C44.2356 52.1996 44.3332 52.3528 44.3862 52.5688L44.8728 54.5746C44.9798 55.0161 44.994 55.412 44.9135 55.7516C44.8321 56.0961 44.6541 56.3863 44.3833 56.6128C44.1182 56.8364 43.7632 57.0029 43.3277 57.1095C43.0711 57.1723 42.8278 57.2046 42.6043 57.2046H42.6025Z" fill="white"/>
<path d="M43.785 52.1221C43.8844 52.1221 43.9715 52.1449 44.0453 52.1915C44.1646 52.2657 44.247 52.399 44.2934 52.5912L44.78 54.597C44.8842 55.0261 44.8974 55.4038 44.8208 55.7293C44.7441 56.0547 44.5774 56.3249 44.3218 56.54C44.0662 56.755 43.7272 56.9139 43.305 57.0176C43.0541 57.0795 42.8202 57.1099 42.6034 57.1099C42.5437 57.1099 42.486 57.108 42.4292 57.1033C42.165 57.0823 41.9293 57.011 41.7219 56.8892C41.5146 56.7674 41.3385 56.5961 41.1946 56.3725C41.0507 56.1498 40.9399 55.8777 40.8623 55.557L40.3756 53.5512C40.3292 53.36 40.3434 53.203 40.4201 53.0802C40.4959 52.9584 40.6246 52.8747 40.8073 52.83C40.8784 52.8129 40.9446 52.8043 41.0062 52.8043C41.1065 52.8043 41.1936 52.8271 41.2684 52.8728C41.3896 52.947 41.4729 53.0802 41.5203 53.2715L42.0098 55.2897C42.0874 55.6103 42.2171 55.8349 42.397 55.9624C42.5163 56.0471 42.6545 56.0889 42.8126 56.0889C42.8941 56.0889 42.9802 56.0775 43.072 56.0556C43.3371 55.9909 43.5208 55.8596 43.6221 55.6627C43.7234 55.4657 43.7357 55.2069 43.6581 54.8862L43.1686 52.868C43.1222 52.6768 43.1355 52.5198 43.2093 52.398C43.2832 52.2762 43.411 52.1934 43.5937 52.1487C43.6619 52.1316 43.7263 52.124 43.785 52.124M43.785 51.9337C43.7111 51.9337 43.6316 51.9441 43.5483 51.9641C43.3163 52.0212 43.1478 52.1335 43.0474 52.3C42.9471 52.4656 42.9253 52.673 42.984 52.9147L43.4735 54.9328C43.5398 55.2059 43.5331 55.4229 43.4536 55.577C43.3779 55.7236 43.2377 55.8206 43.0266 55.8729C42.9499 55.892 42.878 55.9015 42.8117 55.9015C42.6924 55.9015 42.593 55.871 42.5059 55.8092C42.3648 55.7093 42.2597 55.5199 42.1934 55.2468L41.7039 53.2287C41.6452 52.987 41.5316 52.8138 41.3669 52.7129C41.2618 52.6492 41.1406 52.6169 41.0062 52.6169C40.9295 52.6169 40.8481 52.6273 40.7619 52.6482C40.5299 52.7053 40.3614 52.8176 40.2592 52.9832C40.156 53.1497 40.1332 53.3571 40.1919 53.5998L40.6786 55.6056C40.761 55.9462 40.8812 56.2402 41.0365 56.48C41.1955 56.7274 41.3944 56.9215 41.6273 57.0576C41.8583 57.1927 42.1234 57.2736 42.415 57.2974C42.4765 57.3021 42.54 57.305 42.6043 57.305C42.8354 57.305 43.0862 57.2726 43.3504 57.2079C43.8001 57.0976 44.1675 56.9244 44.4449 56.6913C44.7308 56.4505 44.9202 56.1432 45.0063 55.7787C45.0896 55.4248 45.0764 55.0147 44.9656 54.5579L44.479 52.5521C44.4203 52.3114 44.3085 52.1382 44.1466 52.0364C44.0416 51.9708 43.9204 51.9375 43.7859 51.9375L43.785 51.9337Z" fill="black"/>
<path d="M46.6217 55.8794C46.5564 55.8794 46.4929 55.8689 46.4323 55.847C46.2704 55.7899 46.1407 55.6643 46.047 55.4731L44.5482 52.4291C44.4517 52.2331 44.4318 52.0504 44.4886 51.8877C44.5454 51.725 44.6704 51.5947 44.8607 51.5005L46.2723 50.7982C46.6028 50.6336 46.9152 50.5508 47.2002 50.5508C47.327 50.5508 47.452 50.567 47.5704 50.6003C47.9566 50.7078 48.2587 50.9762 48.467 51.3996C48.6005 51.6717 48.6582 51.942 48.6383 52.2046C48.6175 52.4691 48.52 52.7155 48.3467 52.9363C48.3401 52.9449 48.3335 52.9534 48.3259 52.962H48.3373C48.5181 52.981 48.6999 53.0552 48.8769 53.1837L49.4175 53.5586C49.5472 53.649 49.641 53.7575 49.6968 53.8802C49.7565 54.0125 49.7574 54.1466 49.7016 54.2779C49.6476 54.4054 49.534 54.512 49.3645 54.5967C49.2282 54.6643 49.0966 54.6995 48.9763 54.6995C48.9508 54.6995 48.9262 54.6976 48.9025 54.6947C48.7633 54.6785 48.6175 54.6176 48.4689 54.5149L47.4719 53.8107C47.4047 53.7632 47.3384 53.7394 47.275 53.7394C47.1945 53.7413 47.1169 53.7632 47.0392 53.8022L46.8082 53.9173L47.274 54.8641C47.3678 55.0544 47.3905 55.2333 47.3422 55.3941C47.293 55.5577 47.167 55.6909 46.9673 55.7899C46.848 55.8489 46.7325 55.8794 46.6236 55.8794H46.6217ZM46.3528 52.9972L46.9682 52.6918C47.1509 52.6004 47.2731 52.4967 47.3308 52.3825C47.3848 52.2759 47.3763 52.1551 47.3062 52.0133C47.2399 51.8792 47.15 51.8021 47.0316 51.7783C47.0042 51.7726 46.9758 51.7707 46.9455 51.7707C46.8366 51.7707 46.7088 51.8068 46.5658 51.8782L45.9504 52.1837L46.3519 52.9991L46.3528 52.9972Z" fill="white"/>
<path d="M47.1988 50.6463C47.3181 50.6463 47.4326 50.6616 47.5434 50.692C47.9051 50.7919 48.1834 51.0422 48.3803 51.4418C48.5072 51.6997 48.5612 51.9509 48.5422 52.1973C48.5233 52.4438 48.4324 52.6702 48.2705 52.8777C48.2184 52.9443 48.1579 53.008 48.0906 53.0689C48.1436 53.0594 48.1967 53.0537 48.2487 53.0537C48.2743 53.0537 48.3008 53.0546 48.3264 53.0575C48.4911 53.0737 48.6559 53.1412 48.8197 53.2611L49.3622 53.6379C49.4786 53.7188 49.56 53.813 49.6083 53.9205C49.6566 54.028 49.6576 54.1346 49.6131 54.2412C49.5676 54.3478 49.471 54.4372 49.3214 54.5114C49.1974 54.5733 49.0819 54.6037 48.9749 54.6037C48.9531 54.6037 48.9323 54.6028 48.9115 54.5999C48.7875 54.5847 48.6568 54.5304 48.5195 54.4353L47.5235 53.7321C47.4392 53.6731 47.3559 53.6427 47.2726 53.6427C47.2688 53.6427 47.266 53.6427 47.2622 53.6427C47.1751 53.6455 47.0861 53.6693 46.9943 53.715L46.679 53.872L47.1874 54.9044C47.2707 55.0738 47.2915 55.227 47.2499 55.3649C47.2082 55.5029 47.0994 55.6152 46.9232 55.7027C46.8163 55.756 46.7159 55.7826 46.6212 55.7826C46.5663 55.7826 46.5142 55.7741 46.4631 55.756C46.3249 55.7075 46.2141 55.599 46.1308 55.4296L44.632 52.3857C44.5468 52.2125 44.5279 52.0565 44.5771 51.9176C44.6254 51.7786 44.7333 51.6673 44.9019 51.5836L46.3135 50.8814C46.6326 50.7225 46.927 50.6435 47.1988 50.6435M46.3097 53.1222L47.0094 52.7739C47.212 52.6731 47.3474 52.556 47.4146 52.4219C47.4819 52.2877 47.4743 52.1364 47.391 51.9671C47.3114 51.8053 47.1978 51.7101 47.0501 51.6806C47.017 51.674 46.9819 51.6711 46.946 51.6711C46.8219 51.6711 46.6818 51.7101 46.5247 51.7882L45.825 52.1364L46.3107 53.1222M47.1997 50.4532C46.8996 50.4532 46.5739 50.5398 46.2302 50.711L44.8195 51.4133C44.6065 51.5189 44.4654 51.6673 44.4001 51.8548C44.3348 52.0432 44.3565 52.2497 44.4645 52.4695L45.9632 55.5134C46.0683 55.7284 46.217 55.8702 46.4025 55.9349C46.4726 55.9596 46.5474 55.972 46.6231 55.972C46.7462 55.972 46.8759 55.9387 47.0085 55.873C47.2319 55.7617 47.3749 55.6095 47.4317 55.4201C47.4875 55.2346 47.4629 55.0328 47.3578 54.8197L46.9337 53.9586L47.0795 53.8863C47.1457 53.853 47.2101 53.8358 47.2688 53.8339H47.2736C47.3171 53.8339 47.3644 53.852 47.4156 53.8882L48.4116 54.5913C48.5754 54.7046 48.7354 54.7702 48.8897 54.7883C48.9181 54.7921 48.9465 54.7931 48.9749 54.7931C49.1103 54.7931 49.2552 54.755 49.4057 54.6808C49.5951 54.5866 49.7238 54.4629 49.7873 54.3144C49.8535 54.1603 49.8516 53.9957 49.7816 53.8406C49.7191 53.7017 49.6149 53.5799 49.4701 53.48L48.9276 53.1032C48.7875 53.0004 48.6407 52.93 48.493 52.8929C48.6322 52.6835 48.7127 52.4542 48.7316 52.2106C48.7534 51.9299 48.6928 51.6426 48.5508 51.3552C48.3302 50.9071 48.0083 50.6207 47.5945 50.5065C47.4686 50.4713 47.3351 50.4532 47.1997 50.4532ZM46.0787 52.223L46.6089 51.9594C46.7386 51.8947 46.8522 51.8624 46.9469 51.8624C46.9706 51.8624 46.9933 51.8643 47.0141 51.869C47.07 51.8805 47.1524 51.9109 47.2224 52.0527C47.2963 52.204 47.2717 52.2877 47.247 52.3372C47.1988 52.4333 47.0908 52.5227 46.927 52.6046L46.3968 52.8681L46.0797 52.223H46.0787Z" fill="black"/>
<path d="M50.533 53.5301C50.4421 53.5301 50.3588 53.5111 50.2849 53.474C50.176 53.4188 50.0908 53.3369 50.0312 53.2294C49.9734 53.1247 49.9441 53.0125 49.946 52.8964C49.9479 52.7765 49.9867 52.6661 50.0624 52.5691C50.1391 52.4701 50.2565 52.4035 50.4108 52.3702C50.5813 52.3369 50.7583 52.2788 50.941 52.1951C51.1247 52.1114 51.2885 52.0162 51.4267 51.9144C51.689 51.7213 51.778 51.5909 51.8054 51.5157C51.8528 51.3873 51.8197 51.3188 51.7903 51.2788C51.7496 51.2236 51.6985 51.197 51.6293 51.196C51.5678 51.196 51.4532 51.216 51.2412 51.3121L50.5424 51.628C50.2404 51.766 49.9611 51.8364 49.7121 51.8364C49.6335 51.8364 49.5568 51.8297 49.483 51.8155C49.1724 51.7574 48.9064 51.5804 48.6934 51.2883C48.5542 51.0971 48.4652 50.8906 48.4292 50.6755C48.3933 50.4605 48.4084 50.2416 48.4728 50.0247C48.5362 49.8106 48.6451 49.5994 48.7966 49.3957C48.9481 49.194 49.144 49.0028 49.3807 48.8286C49.5635 48.6935 49.767 48.5755 49.9857 48.4766C50.2073 48.3767 50.4213 48.3158 50.6229 48.2958C50.6513 48.291 50.6845 48.2891 50.7167 48.2891C50.8085 48.2891 50.8946 48.311 50.9732 48.3529C51.0755 48.4081 51.1569 48.4851 51.2156 48.5822C51.2753 48.6811 51.3027 48.7877 51.2989 48.899C51.2942 49.0132 51.2535 49.1179 51.1758 49.2102C51.0991 49.3015 50.9799 49.3681 50.8208 49.4062C50.6949 49.4338 50.5633 49.4804 50.4288 49.547C50.2925 49.6146 50.1666 49.6907 50.0549 49.7725C49.9365 49.8601 49.8447 49.9486 49.7831 50.0352C49.7263 50.1151 49.6941 50.1922 49.6894 50.2635C49.6847 50.3311 49.7017 50.3901 49.7415 50.4443C49.7774 50.4938 49.8267 50.5195 49.8958 50.5233H49.909C49.9659 50.5233 50.0757 50.5043 50.2764 50.4129L50.9704 50.1018C51.2895 49.959 51.5811 49.8867 51.8376 49.8867C51.9049 49.8867 51.9702 49.8915 52.0327 49.901C52.3432 49.9495 52.6064 50.1189 52.8157 50.4044C52.9548 50.5956 53.0438 50.7992 53.0798 51.0124C53.1158 51.2246 53.1016 51.4415 53.0382 51.6546C52.9757 51.8659 52.8649 52.0762 52.7096 52.2788C52.5553 52.4796 52.3546 52.6728 52.1113 52.8526C51.9711 52.9554 51.8159 53.0553 51.6492 53.1476C51.4816 53.2408 51.3131 53.3198 51.1484 53.3817C50.9817 53.4445 50.8217 53.4901 50.6721 53.5177C50.6248 53.5263 50.5775 53.531 50.5339 53.531L50.533 53.5301Z" fill="white"/>
<path d="M50.7178 48.3827C50.7945 48.3827 50.8646 48.3998 50.929 48.4351C51.0161 48.4826 51.0852 48.5473 51.1344 48.6301C51.1846 48.7129 51.2073 48.8014 51.2035 48.8937C51.1998 48.986 51.1666 49.0716 51.1032 49.1477C51.0398 49.2239 50.9384 49.2791 50.7983 49.3124C50.6658 49.3409 50.5285 49.3904 50.3865 49.4598C50.2445 49.5303 50.1148 49.6083 49.9983 49.6939C49.8714 49.7881 49.7739 49.8823 49.7057 49.9775C49.6376 50.0726 49.6006 50.1649 49.595 50.2544C49.5883 50.3438 49.612 50.4247 49.665 50.4979C49.718 50.5703 49.7928 50.6102 49.8894 50.6159C49.896 50.6159 49.9017 50.6159 49.9084 50.6159C50.004 50.6159 50.1403 50.576 50.3145 50.497L51.0076 50.1858C51.3153 50.0479 51.5917 49.9784 51.836 49.9784C51.8985 49.9784 51.9591 49.9832 52.0168 49.9917C52.3028 50.0365 52.5432 50.1916 52.7373 50.458C52.8689 50.6378 52.9513 50.8272 52.9844 51.0251C53.0185 51.224 53.0053 51.4238 52.9456 51.6246C52.886 51.8253 52.7818 52.0232 52.6322 52.2183C52.4836 52.4134 52.2904 52.5979 52.0528 52.773C51.9155 52.8748 51.764 52.9709 51.6012 53.0623C51.4374 53.1536 51.2746 53.2298 51.1127 53.2907C50.9508 53.3516 50.7974 53.3953 50.6525 53.422C50.6099 53.4296 50.5701 53.4334 50.5313 53.4334C50.4556 53.4334 50.3865 53.4182 50.3259 53.3868C50.234 53.3401 50.163 53.2716 50.1129 53.1812C50.0627 53.0908 50.0381 52.9957 50.04 52.8958C50.0418 52.7968 50.074 52.7064 50.1365 52.6255C50.199 52.5447 50.2965 52.4904 50.43 52.4619C50.6061 52.4276 50.7898 52.3677 50.9801 52.2801C51.1704 52.1926 51.338 52.0965 51.4828 51.9899C51.7101 51.8225 51.8474 51.675 51.8937 51.5475C51.9411 51.42 51.9316 51.3115 51.8663 51.2211C51.8085 51.1412 51.73 51.1012 51.6305 51.0993C51.6287 51.0993 51.6268 51.0993 51.6258 51.0993C51.5273 51.0993 51.3863 51.1412 51.2017 51.224L50.5029 51.5389C50.2123 51.6721 49.9481 51.7387 49.7114 51.7387C49.6385 51.7387 49.5675 51.7321 49.5003 51.7197C49.2125 51.6664 48.9691 51.5028 48.7694 51.2297C48.6378 51.0498 48.5563 50.8595 48.5232 50.6578C48.4901 50.4561 48.5033 50.2534 48.5639 50.0498C48.6245 49.8462 48.7268 49.6463 48.8735 49.4513C49.0193 49.2562 49.2077 49.0735 49.4378 48.9032C49.6167 48.7709 49.8127 48.6577 50.0258 48.5616C50.2388 48.4655 50.4414 48.4084 50.6336 48.3884C50.662 48.3837 50.6904 48.3818 50.7178 48.3818M50.7178 48.1915C50.6828 48.1915 50.6468 48.1943 50.6099 48.1991C50.3997 48.221 50.1772 48.2838 49.9481 48.3875C49.7228 48.4893 49.5135 48.6111 49.3251 48.7491C49.0809 48.9289 48.8773 49.1268 48.7211 49.3361C48.562 49.5483 48.4484 49.77 48.3821 49.9955C48.314 50.2268 48.2988 50.4599 48.3367 50.6892C48.3746 50.9195 48.4692 51.1393 48.6179 51.3429C48.8461 51.655 49.132 51.8453 49.4671 51.9081C49.5457 51.9224 49.6291 51.93 49.7133 51.93C49.9765 51.93 50.2691 51.8567 50.5834 51.713L51.2812 51.3981C51.4885 51.3039 51.587 51.2906 51.6277 51.2906C51.6694 51.2906 51.693 51.3029 51.7158 51.3343C51.7281 51.3515 51.7536 51.3867 51.7186 51.4818C51.6997 51.5332 51.6296 51.6483 51.373 51.8367C51.2395 51.9347 51.0824 52.0261 50.9044 52.1079C50.7283 52.1888 50.5578 52.2449 50.3969 52.2763C50.2161 52.3154 50.0807 52.3934 49.9907 52.5104C49.9027 52.6246 49.8563 52.754 49.8544 52.8948C49.8525 53.028 49.8847 53.1555 49.9519 53.2754C50.0201 53.3991 50.1195 53.4943 50.2454 53.558C50.3325 53.6018 50.431 53.6246 50.5361 53.6246C50.5862 53.6246 50.6383 53.6199 50.6923 53.6094C50.8476 53.5809 51.0123 53.5333 51.1837 53.4686C51.3531 53.4048 51.5264 53.324 51.6978 53.2288C51.8682 53.1337 52.0263 53.0318 52.1693 52.9272C52.4202 52.7426 52.6275 52.5437 52.7866 52.3353C52.9485 52.1231 53.0649 51.9024 53.1312 51.6807C53.1994 51.4523 53.2145 51.2221 53.1757 50.9946C53.1369 50.7672 53.0422 50.5493 52.8945 50.3467C52.6701 50.0393 52.3861 49.8576 52.05 49.8052C51.9827 49.7948 51.9117 49.7891 51.8398 49.7891C51.5699 49.7891 51.2651 49.8642 50.9337 50.0127L50.2407 50.3238C50.0437 50.4133 49.95 50.4266 49.9112 50.4266H49.9036C49.8572 50.4237 49.8364 50.4085 49.8203 50.3857C49.7938 50.3495 49.7834 50.3124 49.7862 50.2686C49.79 50.2154 49.8156 50.1545 49.862 50.0888C49.9178 50.0108 50.003 49.9289 50.1129 49.8481C50.2198 49.7691 50.341 49.6958 50.4726 49.6311C50.6004 49.5683 50.7245 49.5236 50.8409 49.4989C51.0246 49.4551 51.1609 49.378 51.2509 49.2705C51.3418 49.162 51.3901 49.0374 51.3957 48.9023C51.4005 48.7719 51.3683 48.6472 51.2992 48.5321C51.232 48.4198 51.1382 48.3313 51.0208 48.2676C50.929 48.2181 50.8277 48.1924 50.7197 48.1924L50.7178 48.1915Z" fill="black"/>
</g>
<defs>
<clipPath id="clip0_10406_1066">
<rect width="76" height="66.6301" fill="white" transform="translate(0 0.906311)"/>
</clipPath>
</defs>
</svg>
