<svg width="17" height="16" viewBox="0 0 17 16" fill="none" xmlns="http://www.w3.org/2000/svg">
<g clip-path="url(#clip0_10576_182)">
<path d="M13.6875 8C12.1406 8 10.875 9.26559 10.875 10.8125C10.875 12.3594 12.1406 13.625 13.6875 13.625C15.2344 13.625 16.5 12.3594 16.5 10.8125C16.5 9.26559 15.2344 8 13.6875 8ZM13.6875 12.6875C12.6563 12.6875 11.8125 11.8437 11.8125 10.8125C11.8125 9.78128 12.6563 8.9375 13.6875 8.9375C14.7187 8.9375 15.5625 9.78128 15.5625 10.8125C15.5625 11.8437 14.7187 12.6875 13.6875 12.6875Z" fill="#B34B1E"/>
<path d="M3.3125 8C1.76559 8 0.5 9.26559 0.5 10.8125C0.5 12.3594 1.76559 13.625 3.3125 13.625C4.85941 13.625 6.125 12.3594 6.125 10.8125C6.125 9.26559 4.85941 8 3.3125 8ZM3.3125 12.6875C2.28128 12.6875 1.4375 11.8437 1.4375 10.8125C1.4375 9.78128 2.28128 8.9375 3.3125 8.9375C4.34372 8.9375 5.1875 9.78128 5.1875 10.8125C5.1875 11.8437 4.34372 12.6875 3.3125 12.6875Z" fill="#B34B1E"/>
<path d="M4.25 5.1875H9V8H4.25V5.1875ZM11.3438 3.3125H10.4062C10.1472 3.3125 9.9375 3.10284 9.9375 2.84375C9.9375 2.58466 10.1472 2.375 10.4062 2.375H11.3438C11.6028 2.375 11.8125 2.58466 11.8125 2.84375C11.8125 3.10284 11.6028 3.3125 11.3438 3.3125Z" fill="#F6B900"/>
<path d="M13.95 11.2044C13.8656 11.2513 13.7812 11.2795 13.6875 11.2795C13.5375 11.2795 13.3875 11.2044 13.2938 11.0733L11.1 7.792C10.95 7.57635 11.0157 7.28572 11.2219 7.13575C11.4375 6.9951 11.7281 7.05135 11.8781 7.26697L13.6875 9.95766L14.0812 10.5482C14.2219 10.7638 14.1656 11.0545 13.95 11.2044ZM8.53125 9.87322V11.7482H3.3125C2.79688 11.7482 2.375 11.3263 2.375 10.8107C2.375 10.2951 2.79688 9.87322 3.3125 9.87322H8.53125Z" fill="#F6B900"/>
<path d="M11.3438 2.375C11.0812 2.375 10.875 2.58122 10.875 2.84375V4.25H9.46875C9.30941 4.25 9.16875 4.32503 9.07503 4.45622L7.30934 7.0625H5.90938L4.41875 4.83125C4.175 4.46563 3.77187 4.25 3.33128 4.25H0.96875C0.706219 4.25 0.5 4.45622 0.5 4.71875C0.5 5.91878 1.40934 6.92184 2.58122 7.04372L4.08125 9.29375C4.325 9.65937 4.72813 9.875 5.16872 9.875H6.30312L6.625 10.4656L6.90625 11.0281C7.13122 11.4688 7.58128 11.75 8.0875 11.75H8.775C9.40309 11.75 9.9375 11.3094 10.0594 10.6906L10.1344 10.3625C10.5094 8.44997 12.2062 7.0625 14.1562 7.0625C14.4188 7.0625 14.625 6.85628 14.625 6.59375V5.65625C14.625 3.84687 13.1531 2.375 11.3438 2.375Z" fill="#B34B1E"/>
</g>
<defs>
<clipPath id="clip0_10576_182">
<rect width="16" height="16" fill="white" transform="translate(0.5)"/>
</clipPath>
</defs>
</svg>
