<svg width="28" height="28" viewBox="0 0 28 28" fill="none" xmlns="http://www.w3.org/2000/svg">
<rect width="28" height="28" rx="14" fill="#B34B1E"/>
<path d="M14.0007 18.564H13.9874C13.9461 18.564 9.81075 18.556 8.76741 18.2727C8.1937 18.1181 7.74565 17.6698 7.59141 17.096C7.4038 16.0376 7.31321 14.9642 7.32075 13.8893C7.3159 12.8127 7.40895 11.7378 7.59875 10.678C7.75722 10.1037 8.2033 9.65329 8.77608 9.48932C9.79075 9.22266 13.8121 9.22266 13.9827 9.22266H13.9967C14.0387 9.22266 18.1847 9.23066 19.2174 9.51399C19.7899 9.66933 20.2371 10.1167 20.3921 10.6893C20.5857 11.7517 20.6765 12.8302 20.6634 13.91C20.6681 14.9853 20.5748 16.0589 20.3847 17.1173C20.2285 17.6904 19.7802 18.1377 19.2067 18.2927C18.1934 18.5613 14.1714 18.564 14.0007 18.564ZM12.6674 11.8927L12.6641 15.8927L16.1387 13.8927L12.6674 11.8927Z" fill="white"/>
</svg>
